<?xml version="1.0" encoding="UTF-8"?>
<svg id="Layer_1" data-name="Layer 1" xmlns="http://www.w3.org/2000/svg" xmlns:xlink="http://www.w3.org/1999/xlink" viewBox="0 0 1080 432">
  <defs>
    <style>
      .cls-1 {
        fill: url(#linear-gradient-2);
      }

      .cls-2 {
        fill: #9ea1ad;
      }

      .cls-3 {
        fill: url(#linear-gradient);
      }
    </style>
    <linearGradient id="linear-gradient" x1="-45.77" y1="220.17" x2="1024.57" y2="210.82" gradientUnits="userSpaceOnUse">
      <stop offset="0" stop-color="#344894"/>
      <stop offset="1" stop-color="#ce268c"/>
    </linearGradient>
    <linearGradient id="linear-gradient-2" x1="-46.37" y1="151.17" x2="1023.96" y2="141.82" xlink:href="#linear-gradient"/>
  </defs>
  <g>
    <path class="cls-2" d="M264.69,421.67v5.96c-.39.3-.89.56-1.49.78-.61.21-1.27.32-2.01.32-1.04,0-1.92-.21-2.66-.62-.73-.41-1.4-1.16-2.01-2.24l-12.31-20.73c-.65-1.17-1.36-2.45-2.14-3.86-.78-1.4-1.51-2.74-2.2-4.02-.69-1.27-1.23-2.32-1.62-3.14l-4.79,1.23v-5.64c.34-.35.83-.63,1.46-.84.63-.22,1.31-.32,2.04-.32,1.04,0,1.92.21,2.66.62.73.41,1.4,1.16,2.01,2.24l12.38,20.73c.69,1.17,1.41,2.45,2.17,3.86.76,1.4,1.46,2.74,2.11,4.02s1.17,2.32,1.56,3.14l4.86-1.23v-.26ZM237.87,393.03c.17,1.34.32,2.92.45,4.73.13,1.81.23,3.68.29,5.6.07,1.92.1,3.75.1,5.47v19.37c-.22.09-.55.18-1,.29-.45.11-.92.16-1.39.16-.95,0-1.66-.18-2.14-.55s-.71-.96-.71-1.78v-32.92l4.41-.39ZM260.22,424.26c-.43-3.63-.68-7.33-.75-11.11-.06-3.78-.1-7.44-.1-10.98v-13.09c.26-.09.6-.18,1.04-.29.43-.11.91-.16,1.43-.16.95,0,1.66.18,2.14.55.48.37.71.96.71,1.78v32.92l-4.47.39Z"/>
    <path class="cls-2" d="M304.99,393.29c0,.56-.18,1.07-.55,1.52-.37.45-.79.79-1.26,1-1.08-.78-2.39-1.51-3.92-2.2-1.53-.69-3.51-1.04-5.93-1.04-2.63,0-5,.61-7.09,1.81-2.1,1.21-3.76,3.01-4.99,5.41-1.23,2.4-1.85,5.37-1.85,8.91,0,5.31,1.31,9.31,3.92,11.99,2.61,2.68,6.02,4.02,10.2,4.02,2.25,0,4.21-.32,5.9-.97,1.69-.65,3.07-1.38,4.15-2.2.43.17.84.49,1.23.94.39.45.58.98.58,1.59,0,.43-.12.85-.36,1.26-.24.41-.64.81-1.2,1.2-.99.69-2.36,1.31-4.08,1.85-1.73.54-3.93.81-6.61.81-3.58,0-6.84-.77-9.75-2.3-2.92-1.53-5.22-3.81-6.9-6.84-1.69-3.02-2.53-6.8-2.53-11.34s.87-8.34,2.62-11.4c1.75-3.07,4.06-5.37,6.93-6.9,2.87-1.53,6.02-2.3,9.43-2.3,2.38,0,4.47.26,6.29.78s3.23,1.18,4.24,1.98c1.01.8,1.52,1.61,1.52,2.43Z"/>
    <path class="cls-2" d="M326.83,393.42h-15.16c-.13-.22-.26-.52-.39-.91-.13-.39-.19-.8-.19-1.23,0-.73.17-1.31.52-1.72.35-.41.84-.62,1.49-.62h13.41l.32,4.47ZM329.03,391.67v36.54c-.22.09-.55.18-1,.29-.45.11-.92.16-1.39.16-.95,0-1.66-.19-2.14-.58s-.71-.99-.71-1.81v-34.6h5.25ZM326.05,388.95h15.1c.13.17.26.45.39.84s.19.8.19,1.23c0,.69-.17,1.26-.52,1.72-.35.45-.84.68-1.49.68h-13.35l-.32-4.47Z"/>
    <path class="cls-2" d="M365.19,406.76c2.94,0,5.38.49,7.32,1.46,1.94.97,3.4,2.26,4.37,3.86.97,1.6,1.46,3.39,1.46,5.38,0,3.93-1.42,6.85-4.24,8.75-2.83,1.9-6.86,2.85-12.08,2.85-1.17,0-2.33-.03-3.5-.1-1.17-.06-2.31-.18-3.43-.36-1.12-.17-2.2-.39-3.24-.65-1.81-.52-2.72-1.51-2.72-2.98v-33.18c0-.69.18-1.23.55-1.62s.9-.67,1.59-.84c1.47-.43,3.03-.72,4.7-.87,1.66-.15,3.44-.23,5.35-.23,4.88,0,8.68.87,11.4,2.62s4.08,4.42,4.08,8c0,1.81-.44,3.49-1.33,5.02-.89,1.53-2.31,2.76-4.28,3.69-1.97.93-4.59,1.39-7.87,1.39l-.58-3.24c2.85,0,5.01-.59,6.48-1.78,1.47-1.19,2.2-2.84,2.2-4.96s-.85-3.77-2.56-4.83c-1.71-1.06-4.22-1.59-7.55-1.59-1.47,0-2.77.06-3.89.16-1.12.11-2.16.25-3.11.42v30.84c1.04.22,2.24.39,3.6.52,1.36.13,2.73.19,4.11.19,3.58,0,6.31-.6,8.17-1.81,1.86-1.21,2.79-3.07,2.79-5.57,0-2.25-.83-4.03-2.49-5.35-1.66-1.32-4.12-1.98-7.35-1.98l2.07-3.24ZM370.56,410h-17.82v-4.28h17.82v4.28Z"/>
    <path class="cls-2" d="M386.11,413.57c-.13-.3-.24-.62-.32-.94-.09-.32-.13-.7-.13-1.13,0-.73.21-1.29.62-1.65.41-.37.96-.55,1.65-.55h15.49c.09.26.18.56.29.91.11.35.16.71.16,1.1,0,.69-.19,1.24-.58,1.65-.39.41-.95.62-1.69.62h-15.48Z"/>
    <path class="cls-2" d="M407.24,391.99c-.6,0-1.06-.16-1.36-.49-.3-.32-.45-.81-.45-1.46,0-.26.02-.55.06-.87s.11-.64.19-.94h18.66c.6,0,1.06.16,1.36.49.3.32.45.81.45,1.46,0,.26-.02.54-.07.84-.04.3-.11.63-.19.97h-18.66ZM412.81,389.01c-.69-.6-1.22-1.41-1.59-2.43-.37-1.01-.55-2.17-.55-3.47,0-2.12.63-4.04,1.88-5.77,1.25-1.73,3.09-3.11,5.51-4.15,2.42-1.04,5.38-1.56,8.88-1.56,3.28,0,6.25.36,8.91,1.07s4.92,1.52,6.8,2.43c1.88.91,3.27,1.68,4.18,2.33.78.52,1.31,1,1.59,1.46.28.45.42.9.42,1.33,0,.56-.15.99-.45,1.3-.3.3-.63.56-.97.78-2.68-1.9-5.77-3.5-9.27-4.8s-7.15-1.94-10.95-1.94c-2.59,0-4.76.36-6.51,1.07-1.75.71-3.07,1.67-3.95,2.88-.89,1.21-1.33,2.57-1.33,4.08,0,1.34.24,2.42.71,3.24.47.82,1.01,1.43,1.62,1.81l-4.92.32ZM417.41,391.47v37.32c-.26.04-.55.1-.87.16-.32.07-.66.1-1,.1-.82,0-1.46-.15-1.91-.45-.45-.3-.68-.82-.68-1.56v-35.57h4.47Z"/>
    <path class="cls-2" d="M423.69,391.99c-.6,0-1.06-.16-1.36-.49-.3-.32-.45-.81-.45-1.46,0-.26.02-.55.07-.87.04-.32.11-.64.19-.94h47.75c.6,0,1.06.16,1.36.49.3.32.45.81.45,1.46,0,.26-.02.54-.07.84-.04.3-.11.63-.19.97h-47.75ZM450.07,425.68c-4.15,0-7.76-.86-10.85-2.59-3.09-1.73-5.6-4.1-7.55-7.13-1.94-3.02-3.28-6.48-4.02-10.37-.13-.69-.23-1.38-.29-2.07-.06-.69-.1-1.3-.1-1.81,0-1.38.28-2.3.84-2.75.56-.45,1.21-.68,1.94-.68.39,0,.73.04,1.04.13.3.09.54.17.71.26l.19,2.2c.43,4.49,1.47,8.28,3.11,11.37,1.64,3.09,3.75,5.42,6.32,7,2.57,1.58,5.45,2.37,8.65,2.37,1.77,0,3.52-.35,5.25-1.04,1.73-.69,3.16-1.75,4.31-3.17,1.14-1.43,1.72-3.22,1.72-5.38,0-1.55-.19-2.9-.58-4.05-.39-1.14-.93-2.13-1.62-2.95-1.86,1.17-3.64,2.13-5.35,2.88-1.71.76-3.66,1.13-5.86,1.13-1.68,0-3.22-.35-4.6-1.04-1.38-.69-2.49-1.68-3.34-2.98-.84-1.3-1.26-2.83-1.26-4.6,0-1.64.33-3.06,1-4.24.67-1.19,1.52-2.14,2.56-2.85s2.12-1.15,3.24-1.33h3.63c.95.09,1.65.38,2.11.87.45.5.68.98.68,1.46,0,.52-.11.94-.32,1.26-.22.32-.45.59-.71.81-.43-.22-.84-.38-1.23-.49-.39-.11-.95-.16-1.68-.16-.99,0-2,.36-3.01,1.07-1.02.71-1.52,1.85-1.52,3.4,0,1.43.45,2.57,1.36,3.43s2.12,1.3,3.63,1.3c.95,0,2-.19,3.14-.58s2.78-1.19,4.89-2.4l3.5-2.07c.6.48,1.26,1.07,1.98,1.78s1.38,1.58,2.01,2.59c.63,1.02,1.13,2.19,1.52,3.53.39,1.34.58,2.87.58,4.6,0,2.68-.71,5.02-2.14,7.03-1.43,2.01-3.34,3.55-5.73,4.63-2.4,1.08-5.11,1.62-8.13,1.62Z"/>
    <path class="cls-2" d="M468.99,391.99c-.6,0-1.06-.16-1.36-.49-.3-.32-.45-.81-.45-1.46,0-.26.02-.55.06-.87s.11-.64.19-.94h18.66c.6,0,1.06.16,1.36.49.3.32.45.81.45,1.46,0,.26-.02.54-.07.84-.04.3-.11.63-.19.97h-18.66ZM474.56,389.01c-.69-.6-1.22-1.41-1.59-2.43-.37-1.01-.55-2.17-.55-3.47,0-2.12.63-4.04,1.88-5.77,1.25-1.73,3.09-3.11,5.51-4.15,2.42-1.04,5.38-1.56,8.88-1.56,3.28,0,6.25.36,8.91,1.07,2.66.71,4.92,1.52,6.8,2.43,1.88.91,3.27,1.68,4.18,2.33.78.52,1.31,1,1.59,1.46.28.45.42.9.42,1.33,0,.56-.15.99-.45,1.3-.3.3-.63.56-.97.78-2.68-1.9-5.77-3.5-9.27-4.8-3.5-1.3-7.15-1.94-10.95-1.94-2.59,0-4.76.36-6.51,1.07-1.75.71-3.07,1.67-3.95,2.88-.89,1.21-1.33,2.57-1.33,4.08,0,1.34.24,2.42.71,3.24.47.82,1.01,1.43,1.62,1.81l-4.92.32ZM479.16,391.47v37.32c-.26.04-.55.1-.87.16-.32.07-.66.1-1,.1-.82,0-1.46-.15-1.91-.45-.45-.3-.68-.82-.68-1.56v-35.57h4.47Z"/>
    <path class="cls-2" d="M486.09,391.99c-.6,0-1.06-.16-1.36-.49-.3-.32-.45-.81-.45-1.46,0-.26.02-.55.07-.87s.11-.64.19-.94h45.29c.6,0,1.06.16,1.36.49.3.32.45.81.45,1.46,0,.26-.02.54-.07.84s-.11.63-.19.97h-45.29ZM488.81,404.43c0-1.73.31-2.85.94-3.37.63-.52,1.35-.78,2.17-.78.26,0,.54.03.84.1.3.06.54.18.71.36v1.36c0,4.8.74,8.95,2.24,12.47,1.49,3.52,3.51,6.23,6.06,8.13,2.55,1.9,5.44,2.85,8.68,2.85,2.68,0,4.87-.66,6.58-1.98,1.7-1.32,2.56-3.12,2.56-5.41,0-1.51-.39-2.81-1.16-3.89-.78-1.08-1.84-1.9-3.18-2.46l3.5-2.4c1.69.78,3.06,1.97,4.12,3.56,1.06,1.6,1.59,3.41,1.59,5.44,0,2.38-.6,4.41-1.81,6.09s-2.86,2.96-4.96,3.82-4.5,1.3-7.22,1.3c-3.58,0-6.88-.86-9.88-2.59-3-1.73-5.52-4.21-7.55-7.45-2.03-3.24-3.35-7.13-3.95-11.66-.09-.73-.15-1.43-.19-2.07-.04-.65-.07-1.12-.07-1.43ZM505.2,401.39c0,.43.09.9.26,1.39.17.5.34.92.52,1.26-.17.3-.44.57-.81.81-.37.24-.83.36-1.39.36-.86,0-1.64-.36-2.33-1.07-.69-.71-1.04-1.8-1.04-3.27,0-1.6.4-3.03,1.2-4.31.8-1.27,1.94-2.31,3.43-3.11,1.49-.8,3.27-1.28,5.35-1.46h2.46c2.2.13,4.04.66,5.51,1.59s2.57,2.11,3.3,3.53c.73,1.43,1.1,2.98,1.1,4.67,0,1.99-.41,3.72-1.23,5.18-.82,1.47-1.79,2.57-2.92,3.3-.26.22-.52.45-.78.71-.26.26-.61.5-1.04.71-.69.39-1.6.79-2.72,1.2-1.13.41-2.23.62-3.3.62-.65,0-1.19-.19-1.62-.58-.43-.39-.65-1.06-.65-2.01,0-.17,0-.32.03-.45.02-.13.05-.28.1-.45,2.03-.26,3.75-.76,5.15-1.49,1.4-.73,2.46-1.66,3.17-2.79.71-1.12,1.07-2.35,1.07-3.69,0-2.03-.64-3.57-1.91-4.63-1.27-1.06-2.78-1.59-4.5-1.59-1.6,0-3.07.45-4.41,1.36-1.34.91-2.01,2.31-2.01,4.21Z"/>
    <path class="cls-2" d="M528.34,391.99c-.6,0-1.06-.16-1.36-.49-.3-.32-.45-.81-.45-1.46,0-.26.02-.55.07-.87s.11-.64.19-.94h50.28c.6,0,1.06.16,1.36.49.3.32.45.81.45,1.46,0,.26-.02.54-.06.84-.04.3-.11.63-.19.97h-50.28ZM557.75,391.47v36.87c-.26.17-.62.33-1.07.49-.45.15-.94.23-1.46.23h-.29c-.11,0-.23-.02-.36-.06-2.64-2.29-5.26-4.38-7.87-6.29-2.61-1.9-5.24-3.68-7.87-5.35-2.64-1.66-5.31-3.25-8.03-4.76-.17-.39-.31-.86-.42-1.43-.11-.56-.16-1.14-.16-1.75v-.58c0-.26.02-.47.06-.65,2.03-1.51,4.36-2.99,7-4.44,2.63-1.45,5.35-2.76,8.13-3.95s5.41-2.11,7.87-2.75v-5.57h4.47ZM553.28,401.39c-3.07.86-6.25,2.08-9.56,3.66-3.3,1.58-6.28,3.25-8.91,5.02,2.85,1.64,5.53,3.32,8.03,5.02,2.51,1.71,4.72,3.28,6.64,4.73s3.4,2.65,4.44,3.6c-.09-.86-.18-2-.29-3.4-.11-1.4-.19-2.81-.26-4.21s-.1-2.54-.1-3.4v-11.01ZM565.59,418.04c-.95,0-1.7-.23-2.23-.68-.54-.45-.81-1.09-.81-1.91,0-.3.03-.57.1-.81.06-.24.12-.44.16-.62h1.04c1.73,0,3.07-.46,4.02-1.39.95-.93,1.43-2.13,1.43-3.6,0-2.5-1.23-4.43-3.69-5.77-2.46-1.34-5.61-2.05-9.46-2.14v-4.08c3.58,0,6.71.5,9.39,1.49,2.68.99,4.76,2.39,6.25,4.18,1.49,1.79,2.24,3.9,2.24,6.32,0,1.94-.41,3.59-1.23,4.92-.82,1.34-1.87,2.36-3.14,3.05-1.28.69-2.62,1.04-4.05,1.04Z"/>
    <path class="cls-2" d="M608.94,393.03c-.65,1.81-1.42,3.97-2.3,6.48s-1.79,5.09-2.72,7.74-1.8,5.13-2.62,7.42l-.32.97c-.26.78-.58,1.75-.97,2.92s-.8,2.39-1.23,3.66c-.43,1.27-.84,2.46-1.23,3.56-.39,1.1-.69,2-.91,2.69-.3.13-.62.23-.94.29-.32.07-.73.1-1.2.1-.69,0-1.31-.18-1.85-.55s-.81-.96-.81-1.78c0-.39.06-.79.19-1.2.13-.41.28-.85.45-1.33.52-1.47,1.15-3.26,1.91-5.38.76-2.12,1.59-4.43,2.49-6.93.91-2.5,1.86-5.08,2.85-7.71.99-2.63,1.96-5.2,2.91-7.71.95-2.5,1.84-4.8,2.66-6.87.35-.17.86-.35,1.56-.52.69-.17,1.4-.26,2.14-.26.86,0,1.69.13,2.49.39.8.26,1.31.69,1.52,1.3,1.04,2.51,2.15,5.35,3.34,8.52s2.39,6.48,3.6,9.91c1.21,3.43,2.37,6.77,3.47,10.01,1.1,3.24,2.08,6.18,2.95,8.81-.3.39-.7.7-1.2.94-.5.24-1.05.36-1.65.36-.82,0-1.45-.18-1.88-.55-.43-.37-.8-.98-1.1-1.85l-3.56-10.56-.52-1.81c-.86-2.63-1.76-5.29-2.69-7.97s-1.79-5.16-2.59-7.45c-.8-2.29-1.46-4.17-1.98-5.64h-.26ZM600.13,413.5h18.08l1.04,4.34h-20.8l1.69-4.34Z"/>
    <path class="cls-2" d="M634.08,409.16v-20.09c.22-.09.55-.18,1-.29.45-.11.94-.16,1.46-.16.95,0,1.65.18,2.11.55.45.37.68.98.68,1.85v18.14h-5.25ZM639.33,404.82v23.39c-.22.09-.54.18-.97.29-.43.11-.91.16-1.43.16-.95,0-1.66-.19-2.14-.58-.47-.39-.71-.99-.71-1.81v-21.45h5.25Z"/>
    <path class="cls-2" d="M657.67,391.99c-.6,0-1.06-.16-1.36-.49-.3-.32-.45-.81-.45-1.46,0-.26.02-.55.07-.87s.11-.64.19-.94h41.47c.6,0,1.06.16,1.36.49.3.32.45.81.45,1.46,0,.26-.02.54-.06.84-.04.3-.11.63-.19.97h-41.47ZM671.01,410.52c.86-.65,1.6-1.26,2.2-1.85s1.23-1.11,1.88-1.59c1.08-.99,2.27-1.79,3.56-2.4,1.3-.6,2.59-.91,3.89-.91,1.08,0,1.93.1,2.56.29s1.13.4,1.52.62l-.39,4.02c-.35-.26-.82-.46-1.43-.62-.6-.15-1.34-.23-2.2-.23-1.94,0-4.43,1.21-7.45,3.63-2.51,2.03-4.69,3.46-6.54,4.28s-3.74,1.23-5.64,1.23h-.26c-.86,0-1.54-.2-2.04-.62-.5-.41-.74-.98-.74-1.72,0-.35.03-.66.1-.94s.16-.55.29-.81h2.46c1.64,0,3.08-.23,4.31-.68,1.23-.45,2.54-1.03,3.92-1.72ZM662.79,412.92c2.72,0,4.86-.69,6.41-2.07s2.33-3.22,2.33-5.51c0-1.9-.52-3.61-1.56-5.12-1.04-1.51-2.76-2.83-5.18-3.95l-3.17-1.49c-.35-.17-.63-.37-.84-.58-.22-.22-.32-.56-.32-1.04,0-.26.05-.53.16-.81.11-.28.2-.49.29-.62h4.34c1.04.39,2.15.95,3.34,1.68,1.19.73,2.31,1.66,3.37,2.79,1.06,1.12,1.93,2.42,2.62,3.89.69,1.47,1.04,3.15,1.04,5.05,0,.69-.09,1.35-.26,1.98-.17.63-.37,1.26-.58,1.91l-4.54,4.21-7.45-.32ZM690.65,391.6v36.74c-.26.04-.55.1-.87.16-.32.06-.66.1-1.01.1-.82,0-1.46-.15-1.91-.45s-.68-.82-.68-1.56v-34.99h4.47Z"/>
    <path class="cls-2" d="M697.58,391.99c-.6,0-1.06-.16-1.36-.49-.3-.32-.45-.81-.45-1.46,0-.26.02-.55.07-.87s.11-.64.19-.94h35.12c.6,0,1.06.16,1.36.49.3.32.45.81.45,1.46,0,.26-.02.54-.06.84-.04.3-.11.63-.19.97h-35.12ZM700.75,417.71c-.17-.47-.26-.95-.26-1.43s.07-.92.19-1.33c.13-.41.3-.74.52-1,.95.09,1.98.17,3.08.26,1.1.09,2.13.13,3.08.13,4.67,0,8.22-.96,10.66-2.88,2.44-1.92,3.66-4.46,3.66-7.61,0-2.42-.73-4.36-2.17-5.83s-3.25-2.2-5.41-2.2c-1.99,0-3.67.64-5.05,1.91-1.38,1.27-2.07,3.06-2.07,5.35,0,.56.09,1.17.26,1.81.17.65.34,1.17.52,1.56-.22.35-.51.63-.87.84-.37.22-.83.32-1.39.32-.82,0-1.58-.4-2.27-1.2-.69-.8-1.04-2.06-1.04-3.79,0-1.99.47-3.75,1.43-5.28.95-1.53,2.22-2.76,3.82-3.69,1.6-.93,3.32-1.48,5.18-1.65h2.85c1.9.17,3.68.76,5.35,1.75,1.66.99,3.01,2.34,4.05,4.05,1.04,1.71,1.56,3.75,1.56,6.12,0,2.98-.76,5.5-2.27,7.55-1.51,2.05-3.56,3.61-6.16,4.66-2.59,1.06-5.55,1.59-8.88,1.59h-1.17l-1.29-2.85,2.2,2.66c2.98,1.21,5.64,2.32,7.97,3.34,2.33,1.02,4.36,1.92,6.09,2.72,1.73.8,3.13,1.5,4.21,2.11.6.3,1.05.64,1.33,1,.28.37.42.85.42,1.46,0,.56-.17,1.09-.52,1.59-.35.5-.8.87-1.36,1.13-2.59-1.43-4.96-2.71-7.1-3.86s-4.19-2.2-6.16-3.18-3.99-1.95-6.06-2.95c-2.07-.99-4.39-2.05-6.93-3.17Z"/>
    <path class="cls-2" d="M750.45,408.64c0,.69-.15,1.4-.45,2.14-.3.73-.56,1.27-.78,1.62l-.71-1.23,14.9-16,3.44,2.53-19.7,20.41c-.43-.09-.87-.28-1.33-.58-.45-.3-.85-.66-1.2-1.07-.35-.41-.58-.81-.71-1.2l1.43-1.68c.47-.56.83-1.14,1.07-1.75.24-.6.36-1.25.36-1.94,0-.95-.37-1.86-1.1-2.72-.73-.86-1.92-1.3-3.56-1.3h-6.16c-.56,0-1.03-.17-1.39-.52-.37-.35-.59-.76-.68-1.23-.04-.22-.07-.41-.07-.58v-.45c0-2.12.41-4.1,1.23-5.96.82-1.86,1.97-3.5,3.44-4.92,1.47-1.43,3.21-2.55,5.22-3.37,2.01-.82,4.2-1.23,6.58-1.23,2.89,0,5.4.52,7.52,1.56,2.12,1.04,3.88,2.29,5.28,3.76s2.45,2.87,3.14,4.21l.65,1.23-1.23,2.92-1.88-1.43-1.62-1.81c-.78-.91-1.71-1.85-2.79-2.82-1.08-.97-2.38-1.8-3.89-2.49-1.51-.69-3.35-1.04-5.51-1.04-2.72,0-5.16.89-7.32,2.66-2.16,1.77-3.52,4.32-4.08,7.65h3.76c2.42,0,4.38.64,5.9,1.91,1.51,1.27,2.27,2.86,2.27,4.76ZM775.65,388.23c.6,0,1.06.16,1.36.49.3.32.45.81.45,1.46,0,.26-.02.54-.07.84s-.11.63-.19.97h-12.96v-.06c0-.99.32-1.86.97-2.59.65-.73,1.62-1.1,2.91-1.1h7.52ZM768.72,391.93v36.41c-.26.04-.55.1-.87.16-.32.06-.66.1-1,.1-.82,0-1.46-.15-1.91-.45-.45-.3-.68-.82-.68-1.56v-34.66h4.47Z"/>
    <path class="cls-2" d="M774.36,391.99c-.6,0-1.06-.16-1.36-.49-.3-.32-.45-.81-.45-1.46,0-.26.02-.55.06-.87.04-.32.11-.64.19-.94h6.74c1.17,0,2.17.26,3.01.78s1.42,1.21,1.72,2.07c.22-.99.68-1.72,1.39-2.17.71-.45,1.52-.68,2.43-.68h4.66c.6,0,1.06.16,1.36.49.3.32.45.81.45,1.46,0,.26-.02.54-.07.84s-.11.63-.19.97h-5.51c-.95,0-1.68.25-2.2.75-.52.5-.78,1.26-.78,2.3v34.02c-.26.04-.55.1-.87.16-.32.07-.66.1-1,.1-.82,0-1.46-.15-1.91-.45-.45-.3-.68-.82-.68-1.56v-32.91c0-.82-.21-1.43-.62-1.81-.41-.39-.98-.58-1.72-.58h-4.67Z"/>
    <path class="cls-2" d="M844.73,388.23c.6,0,1.06.16,1.36.49.3.32.45.81.45,1.46,0,.26-.02.54-.06.84s-.11.63-.19.97h-53.52c-.6,0-1.06-.16-1.36-.49-.3-.32-.45-.81-.45-1.46,0-.26.02-.55.07-.87s.11-.64.19-.94h53.52ZM796.26,377.41l-.78-2.07c-1.21-1.12-2.2-2.48-2.98-4.08-.78-1.6-1.17-3.11-1.17-4.54,0-1.77.36-3.06,1.07-3.86.71-.8,1.57-1.2,2.56-1.2s1.68.52,2.07,1.56c-.39.43-.68.97-.87,1.62-.19.65-.29,1.27-.29,1.88,0,.99.21,1.98.62,2.95s.94,1.89,1.59,2.75l-1.82,4.99ZM799.76,383.89c-2.16,0-3.8-.47-4.92-1.43-1.12-.95-1.68-2.18-1.68-3.69,0-1.77.72-3.41,2.17-4.92,1.45-1.51,3.44-2.73,5.99-3.66,2.55-.93,5.51-1.39,8.88-1.39,4.84,0,9.16.93,12.96,2.79,3.8,1.86,6.98,4.45,9.52,7.78,2.55,3.33,4.34,7.21,5.38,11.66h-4.28c-1.25-4.36-3.09-7.88-5.51-10.56-2.42-2.68-5.19-4.64-8.33-5.9s-6.4-1.88-9.82-1.88c-2.38,0-4.5.28-6.38.84-1.88.56-3.35,1.29-4.41,2.17-1.06.89-1.59,1.8-1.59,2.75,0,1.21.84,1.81,2.53,1.81h14.51c.6,0,1.06.16,1.36.49.3.32.45.81.45,1.46,0,.26-.02.52-.06.78s-.11.56-.19.91h-16.59ZM794.84,414.6c1.3-.69,2.6-1.49,3.92-2.4,1.32-.91,2.54-2.02,3.66-3.34,1.12-1.32,2.03-2.91,2.72-4.76.69-1.86,1.04-4.06,1.04-6.61,0-1.25-.16-2.44-.49-3.56-.32-1.12-.66-2.01-1.01-2.66h4.08c.34,1.17.66,2.49.94,3.99.28,1.49.42,2.8.42,3.92,0,2.59-.36,4.83-1.07,6.71-.71,1.88-1.6,3.48-2.66,4.8-1.06,1.32-2.16,2.42-3.3,3.3-1.14.89-2.17,1.63-3.08,2.24.48,1.99,1.57,3.72,3.27,5.18,1.71,1.47,3.77,2.2,6.19,2.2,2.81,0,5.19-.83,7.16-2.49,1.97-1.66,2.95-4.2,2.95-7.61,0-2.29-.51-4.41-1.52-6.35s-2.47-3.97-4.37-6.09c-1.9-2.12-4.23-4.58-7-7.39l2.92-2.07,2.66,2.59c1.08,1.04,2.3,2.25,3.66,3.63,1.36,1.38,2.68,2.91,3.95,4.57,1.27,1.66,2.33,3.46,3.17,5.38.84,1.92,1.26,3.96,1.26,6.12,0,2.94-.67,5.43-2.01,7.48-1.34,2.05-3.11,3.62-5.31,4.7-2.2,1.08-4.62,1.62-7.26,1.62-2.89,0-5.4-.6-7.52-1.81-2.12-1.21-3.8-2.82-5.05-4.83-1.25-2.01-2.03-4.16-2.33-6.45ZM802.48,380.78c1.08,1.43,2.07,2.76,2.98,4.02.91,1.25,2.01,2.7,3.3,4.34l-4.47-.07-4.6-5.7,2.79-2.59ZM837.79,391.47v37.32c-.26.04-.55.1-.87.16-.32.07-.66.1-1.01.1-.82,0-1.46-.15-1.91-.45-.45-.3-.68-.82-.68-1.56v-35.57h4.47Z"/>
  </g>
  <g>
    <path class="cls-3" d="M566.59,270.48v-120.73h-54.24c-15.25,10.5-29.92,21.82-44.01,33.93-5.77,4.97-11.24,9.84-16.42,14.64l2.11-36.61v-36.05h138.46l-2.73-38.48H0l2.73,38.48h108.72c-6.51,4.3-11.62,9.69-15.32,16.21-3.79,6.66-5.68,14.69-5.68,24.09v4.39c0,15.05,4.4,26.41,13.18,34.08,8.79,7.68,21.01,11.52,36.67,11.52,7.67,0,14.51-.79,20.52-2.35,2.02-.53,4-1.14,5.97-1.8-.14,9.22-3.71,16.14-10.75,20.73-7.17,4.7-16.91,7.05-29.23,7.05-10.2,0-18.68-1.41-25.45-4.24-6.77-2.83-12.17-6.69-16.2-11.59-4.04-4.9-7.03-10.53-8.94-16.89-1.92-6.36-3.14-13.13-3.64-20.31l-2.42-38.47H21.06l1.97,41.81c1.41,30.1,10.95,53.05,28.63,68.86,17.68,15.81,42.67,23.7,74.99,23.7,28.79,0,50.67-5.9,65.68-17.72,14.99-11.82,22.5-28.33,22.5-49.54,0-3.23-.06-6.44-.16-9.63-.1-3.18-.28-6.36-.53-9.54-.25-3.19-.63-6.29-1.13-9.32l-38.93-17.27-8.03,4.69c-2.22,1.31-4.6,2.48-7.12,3.48-2.53,1.02-5.16,1.52-7.88,1.52-3.73,0-6.49-.94-8.25-2.81-1.77-1.87-2.66-4.87-2.66-9.02v-2.27c0-5.95,1.64-11.08,4.93-15.38,3.29-4.29,7.8-7.84,13.56-10.68,4.05-1.98,8.48-3.61,13.28-4.91,3.75,6.36,8.36,12.26,13.85,17.71,8.88,8.84,19.99,15.97,33.33,21.36,5.25,2.13,10.83,3.91,16.73,5.37-.75,4.2-1.4,8.41-1.96,12.66-1.06,8.02-1.82,16.03-2.28,24.01-.45,7.98-.68,15.81-.68,23.48,0,5.26.08,10.63.23,16.14.15,5.5.43,10.88.83,16.14.41,5.25.92,10.14,1.52,14.69h48.17c-.1-7.37-.15-15.33-.15-23.86v-23.1c0-9.19.21-18.6.61-28.26.41-9.64.96-19.23,1.67-28.78.7-9.55,1.56-18.61,2.57-27.19-11.62-1.31-22.3-3.66-32.04-7.05-9.74-3.38-18.32-7.72-25.75-13.03-3.76-2.69-7.17-5.59-10.21-8.71h98.15v156.79h50.9V125.66h35.75v128.62h48.78c7.07-6.77,14.64-13.62,22.71-20.53,8.08-6.92,16.34-13.71,24.78-20.38,6.02-4.76,11.97-9.38,17.85-13.86l-1.56,26.89v31.07c-3.16-.2-6.33-.32-9.55-.32-20.2,0-35.88,3.66-47.04,10.99-11.16,7.32-16.73,17.95-16.73,31.89s4.9,23.76,14.69,30.98c9.79,7.22,23.63,10.83,41.51,10.83,13.54,0,24.84-1.89,33.93-5.68,9.09-3.78,15.96-9.11,20.6-15.98,2.88-4.25,4.86-8.95,5.95-14.09,17.02,9.29,35.58,22.91,55.71,40.91l3.63-41.36c-10.81-9.9-22.12-18.46-33.93-25.68-5.81-3.55-11.78-6.71-17.88-9.48ZM514.93,304.72c-2.83,3.04-8.13,4.55-15.91,4.55-3.74,0-6.59-.79-8.56-2.35s-2.96-3.76-2.96-6.59,1.61-5.23,4.85-6.89c3.23-1.67,8.43-2.51,15.61-2.51,3.64,0,7.38.29,11.18.84-.12,5.73-1.51,10.06-4.21,12.95Z"/>
    <path class="cls-1" d="M1034.7,146.72c-7.42-7.09-15.62-14.1-24.58-21.06h69.88l-2.73-38.48h-94c-5.64-6.29-10.22-12.3-13.72-18.03-3.64-5.96-6.29-11.94-7.95-17.95-1.67-6.01-2.5-12.29-2.5-18.86,0-10.2,2.47-20.6,7.42-31.21h-47.72c-5.15,8.18-7.73,17.78-7.73,28.78,0,6.77.88,13.51,2.65,20.22,1.77,6.72,4.72,13.41,8.86,20.07,3.51,5.66,8.02,11.31,13.5,16.97h-206.8v33.48h-1.51c-3.23-12.62-9.9-22.02-20-28.18-10.1-6.16-23.73-9.24-40.9-9.24-23.63,0-41.54,6.06-53.7,18.18-12.17,12.12-18.26,29.34-18.26,51.66v16.51l45.26,28.33-37.23,22.12,33.78,28.78,88.62-50.06v83.69h50.9V125.66h36.06v156.8h50.9V125.66h80.59v7.73c0,10-.96,18.51-2.88,25.53-1.92,7.02-4.9,12.95-8.94,17.8-4.04,4.85-9.29,8.96-15.76,12.35-6.47,3.38-14.24,6.44-23.33,9.16v14.24c0,14.85,3.36,27.6,10.07,38.25,6.71,10.66,16.49,18.84,29.31,24.54,12.82,5.71,28.28,8.56,46.36,8.56s33.35-2.78,46.13-8.33c12.77-5.55,22.57-13.66,29.39-24.31,6.82-10.65,10.23-23.61,10.23-38.86v-2.73c0-13.03-2.68-24.59-8.03-34.69-5.35-10.1-12.57-19.49-21.66-28.18ZM679.13,174.78l-29.83-18.7v-.73c0-8.99,2.78-15.91,8.33-20.75,5.55-4.85,13.89-7.27,25-7.27,9.79,0,18.18,2.1,25.15,6.29,5.88,3.54,10.82,8.66,14.83,15.33l-43.48,25.83ZM1012.74,207.16c0,6.77-1.29,12.65-3.86,17.65-2.58,5-6.47,8.84-11.67,11.51-5.2,2.68-11.69,4.01-19.47,4.01s-14.12-1.08-19.32-3.26c-5.2-2.17-9.12-5.43-11.74-9.77-1.57-2.59-2.66-5.58-3.29-8.97,4.59-1.6,8.79-3.48,12.6-5.65,9.85-5.6,17.17-13.43,21.97-23.48,4.17-8.74,6.53-19.37,7.07-31.89,3.54,3.41,6.95,6.91,10.2,10.53,5.2,5.81,9.42,11.87,12.65,18.18,3.23,6.31,4.85,12.8,4.85,19.47v1.67Z"/>
  </g>
</svg>