<svg width="196" height="78" viewBox="0 0 196 78" fill="none" xmlns="http://www.w3.org/2000/svg">
<g clip-path="url(#clip0_445_19587)">
<path d="M48.0368 76.1348V77.2109C47.966 77.2651 47.8753 77.312 47.7664 77.3518C47.6557 77.3897 47.5359 77.4095 47.4016 77.4095C47.2129 77.4095 47.0532 77.3716 46.9189 77.2976C46.7864 77.2236 46.6648 77.0882 46.5541 76.8932L44.3201 73.1502C44.2021 72.939 44.0733 72.7079 43.9317 72.4533C43.7901 72.2005 43.6577 71.9586 43.5324 71.7275C43.4072 71.4982 43.3092 71.3086 43.2384 71.1605L42.3691 71.3826V70.3643C42.4308 70.3011 42.5198 70.2505 42.6341 70.2126C42.7484 70.1729 42.8718 70.1548 43.0043 70.1548C43.1931 70.1548 43.3528 70.1927 43.4871 70.2668C43.6195 70.3408 43.7411 70.4762 43.8518 70.6712L46.0986 74.4141C46.2238 74.6254 46.3545 74.8565 46.4924 75.1111C46.6303 75.3638 46.7574 75.6058 46.8753 75.8369C46.9933 76.068 47.0877 76.2558 47.1584 76.4038L48.0404 76.1818V76.1348H48.0368ZM43.1695 70.9637C43.2003 71.2057 43.2275 71.4909 43.2511 71.8177C43.2747 72.1445 43.2929 72.4822 43.3038 72.8288C43.3165 73.1755 43.3219 73.5059 43.3219 73.8165V77.3138C43.282 77.3301 43.2221 77.3463 43.1404 77.3662C43.0588 77.3861 42.9735 77.3951 42.8882 77.3951C42.7158 77.3951 42.5869 77.3626 42.4998 77.2958C42.4127 77.229 42.371 77.1225 42.371 76.9744V71.0305L43.1713 70.9601L43.1695 70.9637ZM47.2256 76.6025C47.1475 75.947 47.1022 75.279 47.0895 74.5965C47.0786 73.914 47.0713 73.2532 47.0713 72.614V70.2505C47.1185 70.2343 47.1802 70.218 47.2601 70.1982C47.3381 70.1783 47.4252 70.1693 47.5196 70.1693C47.692 70.1693 47.8208 70.2018 47.908 70.2686C47.9951 70.3354 48.0368 70.4419 48.0368 70.59V76.5338L47.2256 76.6043V76.6025Z" fill="#F7BBE9"/>
<path d="M55.351 71.0106C55.351 71.1117 55.3183 71.2038 55.2511 71.285C55.184 71.3663 55.1078 71.4277 55.0225 71.4656C54.8265 71.3248 54.5887 71.193 54.3111 71.0684C54.0334 70.9438 53.6741 70.8806 53.2349 70.8806C52.7576 70.8806 52.3275 70.9907 51.9482 71.2074C51.5671 71.4259 51.2658 71.7509 51.0426 72.1842C50.8194 72.6175 50.7068 73.1538 50.7068 73.793C50.7068 74.7517 50.9446 75.4739 51.4183 75.9578C51.8919 76.4417 52.5108 76.6837 53.2694 76.6837C53.6777 76.6837 54.0334 76.6259 54.3401 76.5085C54.6468 76.3912 54.8973 76.2593 55.0933 76.1113C55.1713 76.142 55.2457 76.1998 55.3165 76.281C55.3873 76.3623 55.4217 76.458 55.4217 76.5681C55.4217 76.6457 55.4 76.7216 55.3564 76.7956C55.3128 76.8696 55.2403 76.9418 55.1386 77.0123C54.959 77.1368 54.7103 77.2488 54.3982 77.3463C54.0842 77.4438 53.685 77.4925 53.1986 77.4925C52.5489 77.4925 51.9573 77.3535 51.4291 77.0773C50.8992 76.801 50.4818 76.3893 50.1769 75.8423C49.8702 75.297 49.7178 74.6145 49.7178 73.7948C49.7178 72.975 49.8757 72.2889 50.1933 71.7364C50.5108 71.1821 50.9301 70.7668 51.4509 70.4906C51.9718 70.2143 52.5434 70.0753 53.1623 70.0753C53.5942 70.0753 53.9735 70.1223 54.3038 70.2162C54.6341 70.31 54.89 70.4292 55.0733 70.5737C55.2566 70.7181 55.3491 70.8643 55.3491 71.0124L55.351 71.0106Z" fill="#F7BBE9"/>
<path d="M59.3145 71.0341H56.5633C56.5397 70.9944 56.5161 70.9402 56.4925 70.8698C56.4689 70.7994 56.458 70.7254 56.458 70.6477C56.458 70.5159 56.4889 70.4112 56.5524 70.3372C56.6159 70.2631 56.7048 70.2252 56.8228 70.2252H59.2565L59.3145 71.0323V71.0341ZM59.7138 70.7181V77.3156C59.6739 77.3319 59.614 77.3481 59.5323 77.368C59.4506 77.3879 59.3653 77.3969 59.28 77.3969C59.1076 77.3969 58.9788 77.3626 58.8917 77.2922C58.8046 77.2217 58.7628 77.1134 58.7628 76.9654V70.7181H59.7156H59.7138ZM59.173 70.227H61.9133C61.9369 70.2577 61.9605 70.3083 61.9841 70.3787C62.0077 70.4491 62.0186 70.5231 62.0186 70.6008C62.0186 70.7254 61.9877 70.8283 61.9242 70.9113C61.8607 70.9926 61.7718 71.0341 61.6538 71.0341H59.231L59.173 70.227Z" fill="#F7BBE9"/>
<path d="M66.2759 73.4427C66.8095 73.4427 67.2523 73.5312 67.6044 73.7063C67.9564 73.8815 68.2214 74.1144 68.3974 74.4033C68.5735 74.6922 68.6624 75.0154 68.6624 75.3747C68.6624 76.0843 68.4047 76.6115 67.8929 76.9545C67.3793 77.2976 66.648 77.4691 65.7006 77.4691C65.4883 77.4691 65.2778 77.4637 65.0654 77.4511C64.8531 77.4402 64.6462 77.4186 64.443 77.3861C64.2397 77.3554 64.0437 77.3157 63.855 77.2687C63.5265 77.1748 63.3613 76.9961 63.3613 76.7307V70.7398C63.3613 70.6152 63.394 70.5177 63.4611 70.4473C63.5283 70.3769 63.6245 70.3263 63.7497 70.2957C64.0165 70.218 64.2996 70.1657 64.6027 70.1386C64.9039 70.1115 65.227 70.097 65.5736 70.097C66.4592 70.097 67.1488 70.2541 67.6425 70.5701C68.1361 70.8861 68.3829 71.3682 68.3829 72.0145C68.3829 72.3414 68.3031 72.6447 68.1415 72.9209C67.98 73.1972 67.7223 73.4193 67.3648 73.5872C67.0073 73.7551 66.5318 73.8382 65.9366 73.8382L65.8313 73.2532C66.3485 73.2532 66.7405 73.1466 67.0073 72.9318C67.2741 72.7169 67.4066 72.419 67.4066 72.0362C67.4066 71.6534 67.2523 71.3555 66.942 71.1641C66.6316 70.9727 66.1761 70.877 65.5718 70.877C65.305 70.877 65.0691 70.8879 64.8658 70.9059C64.6626 70.9258 64.4738 70.9511 64.3014 70.9818V76.5501C64.4901 76.5898 64.7079 76.6205 64.9547 76.644C65.2016 76.6675 65.4502 76.6783 65.7006 76.6783C66.3503 76.6783 66.8458 76.57 67.1833 76.3515C67.5209 76.133 67.6897 75.7972 67.6897 75.3458C67.6897 74.9395 67.539 74.6182 67.2378 74.3798C66.9365 74.1415 66.4901 74.0223 65.9039 74.0223L66.2795 73.4373L66.2759 73.4427ZM67.2505 74.0277H64.0165V73.255H67.2505V74.0277Z" fill="#F7BBE9"/>
<path d="M70.0719 74.6723C70.0483 74.6182 70.0283 74.5604 70.0138 74.5026C69.9975 74.4448 69.9902 74.3762 69.9902 74.2986C69.9902 74.1668 70.0283 74.0657 70.1028 74.0007C70.1772 73.9339 70.277 73.9014 70.4022 73.9014H73.2133C73.2297 73.9483 73.246 74.0025 73.266 74.0657C73.2859 74.1289 73.295 74.1939 73.295 74.2643C73.295 74.3889 73.2605 74.4882 73.1898 74.5622C73.119 74.6362 73.0173 74.6741 72.883 74.6741H70.0737L70.0719 74.6723Z" fill="#F7BBE9"/>
<path d="M73.9066 70.776C73.7977 70.776 73.7142 70.7471 73.6598 70.6875C73.6053 70.6297 73.5781 70.5412 73.5781 70.4239C73.5781 70.3769 73.5818 70.3246 73.589 70.2668C73.5963 70.209 73.609 70.1512 73.6235 70.0971H77.0099C77.1188 70.0971 77.2023 70.126 77.2568 70.1855C77.3112 70.2433 77.3384 70.3318 77.3384 70.4492C77.3384 70.4961 77.3348 70.5467 77.3257 70.6008C77.3185 70.655 77.3058 70.7146 77.2912 70.776H73.9048H73.9066ZM74.9175 70.2379C74.7922 70.1296 74.6961 69.9833 74.6289 69.7992C74.5618 69.6168 74.5291 69.4073 74.5291 69.1726C74.5291 68.7898 74.6434 68.4432 74.8703 68.1308C75.0971 67.8185 75.4311 67.5693 75.8702 67.3815C76.3094 67.1937 76.8466 67.0999 77.4818 67.0999C78.0771 67.0999 78.6161 67.1649 79.0988 67.293C79.5815 67.4212 79.9917 67.5675 80.3329 67.7318C80.6741 67.8961 80.9263 68.0351 81.0915 68.1525C81.233 68.2464 81.3292 68.333 81.38 68.4161C81.4308 68.4974 81.4562 68.5786 81.4562 68.6562C81.4562 68.7574 81.429 68.835 81.3746 68.891C81.3201 68.9451 81.2602 68.9921 81.1985 69.0318C80.7122 68.6887 80.1514 68.3999 79.5162 68.1651C78.881 67.9304 78.2186 67.8149 77.529 67.8149C77.0589 67.8149 76.6651 67.8799 76.3475 68.008C76.0299 68.1362 75.7904 68.3096 75.6307 68.528C75.4692 68.7465 75.3893 68.9921 75.3893 69.2647C75.3893 69.5067 75.4329 69.7017 75.5182 69.8497C75.6035 69.9978 75.7015 70.1079 75.8122 70.1765L74.9193 70.2343L74.9175 70.2379ZM75.7523 70.6821V77.4204C75.7051 77.4276 75.6525 77.4385 75.5944 77.4493C75.5363 77.4619 75.4746 77.4674 75.4129 77.4674C75.2641 77.4674 75.1479 77.4403 75.0663 77.3861C74.9846 77.3319 74.9429 77.238 74.9429 77.1044V70.6821H75.7541H75.7523Z" fill="#F7BBE9"/>
<path d="M76.892 70.7759C76.7831 70.7759 76.6996 70.747 76.6451 70.6875C76.5907 70.6297 76.5635 70.5412 76.5635 70.4239C76.5635 70.3769 76.5671 70.3245 76.5762 70.2668C76.5834 70.209 76.5961 70.1512 76.6107 70.097H85.2764C85.3853 70.097 85.4688 70.1259 85.5232 70.1855C85.5777 70.2433 85.6049 70.3318 85.6049 70.4491C85.6049 70.4961 85.6013 70.5466 85.5922 70.6008C85.5849 70.655 85.5722 70.7145 85.5577 70.7759H76.892ZM81.6794 76.8588C80.9263 76.8588 80.2711 76.7036 79.7104 76.3912C79.1496 76.0788 78.6941 75.6509 78.3402 75.1038C77.9881 74.5586 77.7449 73.9338 77.6106 73.2315C77.587 73.1069 77.5689 72.9823 77.558 72.8577C77.5471 72.7332 77.5398 72.623 77.5398 72.5309C77.5398 72.2818 77.5907 72.1157 77.6923 72.0344C77.7939 71.9532 77.9119 71.9116 78.0444 71.9116C78.1151 71.9116 78.1768 71.9189 78.2331 71.9351C78.2875 71.9514 78.3311 71.9658 78.362 71.982L78.3964 72.3793C78.4745 73.19 78.6632 73.8743 78.9608 74.4322C79.2585 74.9901 79.6414 75.4108 80.1078 75.6961C80.5742 75.9813 81.0969 76.124 81.6776 76.124C81.9988 76.124 82.3164 76.0608 82.6304 75.9362C82.9444 75.8116 83.2039 75.6202 83.4126 75.3638C83.6195 75.1057 83.7247 74.7825 83.7247 74.3925C83.7247 74.1126 83.6903 73.8688 83.6195 73.6612C83.5487 73.4554 83.4507 73.2766 83.3255 73.1286C82.9879 73.3398 82.6649 73.5132 82.3546 73.6486C82.0442 73.7858 81.6903 73.8526 81.2911 73.8526C80.9862 73.8526 80.7067 73.7894 80.4563 73.6648C80.2058 73.5402 80.0044 73.3615 79.8501 73.1268C79.6977 72.892 79.6214 72.6158 79.6214 72.2962C79.6214 72.0001 79.6813 71.7437 79.8029 71.5307C79.9245 71.3158 80.0788 71.1443 80.2675 71.0161C80.4563 70.8879 80.6523 70.8084 80.8555 70.7759H81.5143C81.6867 70.7922 81.8137 70.8445 81.8972 70.933C81.9789 71.0233 82.0206 71.11 82.0206 71.1966C82.0206 71.2905 82.0007 71.3663 81.9626 71.4241C81.9226 71.4819 81.8809 71.5307 81.8337 71.5704C81.7557 71.5307 81.6813 71.5018 81.6105 71.4819C81.5397 71.462 81.4381 71.453 81.3056 71.453C81.1259 71.453 80.9426 71.518 80.7593 71.6462C80.5742 71.7744 80.4835 71.9802 80.4835 72.2601C80.4835 72.5183 80.5651 72.7241 80.7303 72.8794C80.8954 73.0347 81.115 73.1141 81.3891 73.1141C81.5615 73.1141 81.752 73.0798 81.9589 73.0094C82.1658 72.939 82.4634 72.7945 82.8464 72.5761L83.4815 72.2023C83.5904 72.289 83.7102 72.3955 83.8409 72.5237C83.9716 72.6519 84.0913 72.809 84.2057 72.9914C84.32 73.1755 84.4107 73.3868 84.4815 73.6287C84.5523 73.8707 84.5868 74.1469 84.5868 74.4593C84.5868 74.9432 84.4579 75.3657 84.1984 75.7286C83.9389 76.0915 83.5923 76.3695 83.1585 76.5645C82.723 76.7595 82.2311 76.857 81.6831 76.857L81.6794 76.8588Z" fill="#F7BBE9"/>
<path d="M85.1136 70.7759C85.0047 70.7759 84.9213 70.747 84.8668 70.6875C84.8124 70.6297 84.7852 70.5412 84.7852 70.4239C84.7852 70.3769 84.7888 70.3245 84.796 70.2668C84.8033 70.209 84.816 70.1512 84.8305 70.097H88.217C88.3259 70.097 88.4093 70.1259 88.4638 70.1855C88.5182 70.2433 88.5455 70.3318 88.5455 70.4491C88.5455 70.4961 88.5418 70.5466 88.5327 70.6008C88.5255 70.655 88.5128 70.7145 88.4983 70.7759H85.1118H85.1136ZM86.1245 70.2379C85.9993 70.1295 85.9031 69.9833 85.8359 69.7991C85.7688 69.6168 85.7361 69.4073 85.7361 69.1726C85.7361 68.7898 85.8505 68.4432 86.0773 68.1308C86.3042 67.8184 86.6381 67.5693 87.0773 67.3815C87.5165 67.1937 88.0536 67.0998 88.6888 67.0998C89.2841 67.0998 89.8231 67.1648 90.3058 67.293C90.7886 67.4212 91.1987 67.5675 91.5399 67.7318C91.8811 67.8961 92.1333 68.0351 92.2985 68.1525C92.44 68.2463 92.5362 68.333 92.587 68.4161C92.6379 68.4973 92.6633 68.5786 92.6633 68.6562C92.6633 68.7573 92.636 68.835 92.5816 68.8909C92.5272 68.9451 92.4673 68.992 92.4056 69.0318C91.9192 68.6887 91.3584 68.3998 90.7232 68.1651C90.088 67.9304 89.4256 67.8148 88.736 67.8148C88.266 67.8148 87.8722 67.8798 87.5546 68.008C87.237 68.1362 86.9974 68.3095 86.8377 68.528C86.6762 68.7465 86.5963 68.992 86.5963 69.2647C86.5963 69.5066 86.6399 69.7016 86.7252 69.8497C86.8105 69.9977 86.9085 70.1079 87.0192 70.1765L86.1263 70.2343L86.1245 70.2379ZM86.9593 70.682V77.4204C86.9121 77.4276 86.8595 77.4384 86.8014 77.4493C86.7433 77.4619 86.6816 77.4673 86.6199 77.4673C86.4711 77.4673 86.355 77.4402 86.2733 77.3861C86.1916 77.3319 86.1499 77.238 86.1499 77.1044V70.682H86.9611H86.9593Z" fill="#F7BBE9"/>
<path d="M88.2172 70.7759C88.1083 70.7759 88.0248 70.747 87.9703 70.6875C87.9159 70.6297 87.8887 70.5412 87.8887 70.4239C87.8887 70.3769 87.8923 70.3245 87.9014 70.2668C87.9105 70.209 87.9213 70.1512 87.9359 70.097H96.1552C96.264 70.097 96.3475 70.1259 96.402 70.1855C96.4564 70.2433 96.4836 70.3318 96.4836 70.4491C96.4836 70.4961 96.48 70.5466 96.4709 70.6008C96.4619 70.655 96.451 70.7145 96.4365 70.7759H88.2172ZM88.7108 73.022C88.7108 72.7097 88.767 72.5075 88.8814 72.4136C88.9957 72.3197 89.1264 72.2727 89.2752 72.2727C89.3224 72.2727 89.3732 72.2782 89.4276 72.2908C89.4821 72.3016 89.5256 72.3233 89.5565 72.3558V72.6014C89.5565 73.468 89.6908 74.2173 89.963 74.8529C90.2334 75.4884 90.6 75.9777 91.0628 76.3208C91.5256 76.6639 92.05 76.8354 92.638 76.8354C93.1244 76.8354 93.5219 76.7162 93.8322 76.4779C94.1407 76.2395 94.2968 75.9145 94.2968 75.5011C94.2968 75.2284 94.226 74.9937 94.0863 74.7987C93.9447 74.6037 93.7523 74.4557 93.5092 74.3545L94.1443 73.9212C94.451 74.062 94.6997 74.2769 94.892 74.564C95.0844 74.8529 95.1806 75.1797 95.1806 75.5462C95.1806 75.9759 95.0717 76.3425 94.8521 76.6458C94.6325 76.9491 94.3331 77.1802 93.952 77.3355C93.5709 77.4908 93.1353 77.5702 92.6417 77.5702C91.992 77.5702 91.3931 77.415 90.8486 77.1026C90.3042 76.7902 89.8469 76.3425 89.4785 75.7575C89.11 75.1725 88.8705 74.4701 88.7616 73.6522C88.7453 73.5204 88.7344 73.394 88.7271 73.2784C88.7199 73.1611 88.7144 73.0762 88.7144 73.0202L88.7108 73.022ZM91.6853 72.4732C91.6853 72.5508 91.7016 72.6357 91.7324 72.7241C91.7633 72.8144 91.7942 72.8902 91.8268 72.9516C91.796 73.0058 91.747 73.0545 91.6798 73.0979C91.6127 73.1412 91.5292 73.1629 91.4276 73.1629C91.2715 73.1629 91.1299 73.0979 91.0047 72.9697C90.8795 72.8415 90.816 72.6447 90.816 72.3793C90.816 72.0904 90.8886 71.8322 91.0337 71.6011C91.1789 71.3718 91.3858 71.184 91.6562 71.0395C91.9266 70.8951 92.2497 70.8084 92.6272 70.7759H93.0736C93.4729 70.7994 93.8068 70.8951 94.0736 71.063C94.3403 71.2309 94.54 71.444 94.6724 71.7004C94.8049 71.9586 94.8721 72.2384 94.8721 72.5436C94.8721 72.9029 94.7977 73.2152 94.6489 73.4788C94.5 73.7443 94.324 73.9429 94.1189 74.0747C94.0717 74.1144 94.0246 74.1559 93.9774 74.2029C93.9302 74.2498 93.8667 74.2932 93.7886 74.3311C93.6634 74.4015 93.4983 74.4737 93.295 74.5477C93.0899 74.6218 92.8903 74.6597 92.6961 74.6597C92.5782 74.6597 92.4802 74.6254 92.4021 74.555C92.3241 74.4845 92.2842 74.3636 92.2842 74.192C92.2842 74.1614 92.2842 74.1343 92.2896 74.1108C92.2932 74.0873 92.2987 74.0602 92.3077 74.0295C92.6762 73.9826 92.9883 73.8923 93.2424 73.7605C93.4965 73.6287 93.6888 73.4608 93.8177 73.2568C93.9465 73.0545 94.0119 72.8325 94.0119 72.5905C94.0119 72.224 93.8957 71.9459 93.6652 71.7545C93.4347 71.5632 93.1607 71.4675 92.8486 71.4675C92.5582 71.4675 92.2914 71.5487 92.0482 71.713C91.805 71.8773 91.6835 72.1301 91.6835 72.4732H91.6853Z" fill="#F7BBE9"/>
<path d="M95.8841 70.7759C95.7753 70.7759 95.6918 70.747 95.6373 70.6875C95.5829 70.6297 95.5557 70.5412 95.5557 70.4239C95.5557 70.3769 95.5593 70.3245 95.5684 70.2668C95.5774 70.209 95.5883 70.1512 95.6028 70.097H104.728C104.837 70.097 104.92 70.1259 104.975 70.1855C105.029 70.2433 105.056 70.3318 105.056 70.4491C105.056 70.4961 105.053 70.5466 105.045 70.6008C105.038 70.655 105.025 70.7145 105.011 70.7759H95.886H95.8841ZM101.222 70.682V77.3391C101.174 77.3698 101.109 77.3987 101.027 77.4276C100.946 77.4547 100.857 77.4691 100.762 77.4691H100.71C100.69 77.4691 100.668 77.4655 100.644 77.4583C100.165 77.0448 99.6898 76.6675 99.2161 76.3226C98.7425 75.9795 98.2652 75.6582 97.7879 75.3566C97.3088 75.0569 96.8242 74.7698 96.3306 74.4972C96.2997 74.4268 96.2743 74.3419 96.2544 74.239C96.2344 74.1379 96.2253 74.0332 96.2253 73.923V73.8183C96.2253 73.7713 96.229 73.7334 96.2362 73.7009C96.6046 73.4283 97.0275 73.1611 97.5066 72.8993C97.9839 72.6375 98.4775 72.4009 98.982 72.1861C99.4865 71.9712 99.9638 71.8051 100.41 71.6895V70.6839H101.222V70.682ZM100.41 72.4732C99.8531 72.6284 99.276 72.8487 98.6753 73.134C98.0764 73.4193 97.5356 73.7208 97.0583 74.0404C97.5755 74.3365 98.0619 74.6398 98.5156 74.9468C98.9711 75.2555 99.3722 75.539 99.7207 75.8008C100.069 76.0626 100.338 76.2793 100.526 76.4508C100.51 76.2955 100.494 76.0897 100.474 75.8369C100.454 75.5841 100.439 75.3295 100.427 75.0768C100.414 74.824 100.408 74.6182 100.408 74.4629V72.475L100.41 72.4732ZM102.644 75.4794C102.472 75.4794 102.336 75.4379 102.24 75.3566C102.142 75.2754 102.093 75.1598 102.093 75.0118C102.093 74.9576 102.098 74.9089 102.111 74.8655C102.122 74.8222 102.133 74.7861 102.14 74.7536H102.329C102.643 74.7536 102.886 74.6705 103.058 74.5026C103.231 74.3347 103.318 74.118 103.318 73.8526C103.318 73.4012 103.094 73.0527 102.648 72.8108C102.202 72.5689 101.63 72.4407 100.931 72.4244V71.6877C101.581 71.6877 102.149 71.778 102.635 71.9568C103.122 72.1355 103.499 72.3883 103.77 72.7115C104.04 73.0347 104.176 73.4157 104.176 73.8526C104.176 74.2029 104.102 74.5008 103.953 74.7409C103.804 74.9829 103.613 75.167 103.383 75.2916C103.151 75.4162 102.907 75.4794 102.648 75.4794H102.644Z" fill="#F7BBE9"/>
<path d="M110.512 70.9637C110.394 71.2905 110.254 71.6805 110.094 72.1337C109.934 72.5869 109.769 73.0528 109.6 73.5312C109.432 74.0097 109.274 74.4575 109.125 74.871L109.067 75.0461C109.02 75.1869 108.962 75.3621 108.891 75.5733C108.82 75.7846 108.746 76.0048 108.668 76.2341C108.59 76.4635 108.515 76.6783 108.444 76.8769C108.374 77.0755 108.319 77.238 108.279 77.3626C108.225 77.3861 108.167 77.4041 108.109 77.415C108.051 77.4276 107.976 77.433 107.891 77.433C107.766 77.433 107.653 77.4005 107.555 77.3337C107.457 77.2669 107.408 77.1604 107.408 77.0123C107.408 76.9419 107.419 76.8697 107.443 76.7957C107.466 76.7216 107.493 76.6422 107.524 76.5555C107.619 76.2901 107.733 75.9669 107.871 75.5841C108.009 75.2014 108.16 74.7843 108.323 74.3329C108.488 73.8815 108.66 73.4157 108.84 72.9408C109.02 72.466 109.196 72.0019 109.368 71.5487C109.541 71.0973 109.702 70.6821 109.851 70.3083C109.914 70.2776 110.007 70.2451 110.134 70.2144C110.259 70.1837 110.388 70.1675 110.522 70.1675C110.678 70.1675 110.829 70.191 110.974 70.2379C111.119 70.2848 111.212 70.3625 111.25 70.4726C111.439 70.9258 111.64 71.4386 111.856 72.011C112.072 72.5833 112.29 73.181 112.51 73.8003C112.729 74.4196 112.94 75.0226 113.139 75.6076C113.339 76.1926 113.517 76.7235 113.675 77.1983C113.62 77.2687 113.548 77.3247 113.457 77.368C113.366 77.4114 113.266 77.433 113.158 77.433C113.009 77.433 112.894 77.4005 112.816 77.3337C112.738 77.2669 112.671 77.1568 112.617 76.9997L111.971 75.093L111.876 74.7662C111.72 74.2914 111.557 73.8111 111.388 73.3272C111.219 72.8433 111.063 72.3955 110.918 71.9821C110.773 71.5686 110.653 71.2291 110.559 70.9637H110.512ZM108.913 74.6597H112.194L112.383 75.4433H108.608L108.914 74.6597H108.913Z" fill="#F7BBE9"/>
<path d="M115.074 73.8761V70.2487C115.114 70.2325 115.174 70.2162 115.256 70.1963C115.337 70.1765 115.426 70.1674 115.521 70.1674C115.693 70.1674 115.82 70.2 115.904 70.2668C115.985 70.3336 116.027 70.4437 116.027 70.6008V73.8761H115.074ZM116.027 73.0925V77.3156C115.987 77.3319 115.929 77.3481 115.851 77.368C115.773 77.3879 115.686 77.3969 115.591 77.3969C115.419 77.3969 115.29 77.3626 115.203 77.2922C115.118 77.2218 115.074 77.1134 115.074 76.9654V73.0925H116.027Z" fill="#F7BBE9"/>
<path d="M119.356 70.7759C119.247 70.7759 119.163 70.747 119.109 70.6875C119.055 70.6297 119.027 70.5412 119.027 70.4239C119.027 70.3769 119.031 70.3245 119.04 70.2668C119.049 70.209 119.06 70.1512 119.075 70.097H126.601C126.709 70.097 126.793 70.1259 126.847 70.1855C126.902 70.2433 126.929 70.3318 126.929 70.4491C126.929 70.4961 126.925 70.5466 126.918 70.6008C126.911 70.655 126.898 70.7145 126.884 70.7759H119.358H119.356ZM121.777 74.1216C121.933 74.0043 122.067 73.8941 122.176 73.7876C122.285 73.6811 122.399 73.5872 122.517 73.5005C122.713 73.3218 122.929 73.1773 123.163 73.0672C123.399 72.9588 123.633 72.9029 123.869 72.9029C124.065 72.9029 124.22 72.9209 124.334 72.9552C124.448 72.9895 124.539 73.0275 124.61 73.0672L124.539 73.793C124.475 73.7461 124.39 73.71 124.279 73.6811C124.171 73.654 124.036 73.6395 123.88 73.6395C123.528 73.6395 123.076 73.858 122.528 74.295C122.073 74.6615 121.677 74.9197 121.341 75.0677C121.005 75.2158 120.662 75.2898 120.318 75.2898H120.27C120.114 75.2898 119.991 75.2537 119.9 75.1779C119.81 75.1038 119.766 75.0009 119.766 74.8673C119.766 74.8041 119.771 74.7482 119.784 74.6976C119.797 74.647 119.813 74.5983 119.837 74.5513H120.283C120.581 74.5513 120.842 74.5098 121.065 74.4286C121.289 74.3473 121.526 74.2426 121.777 74.118V74.1216ZM120.285 74.555C120.779 74.555 121.167 74.4304 121.448 74.1812C121.73 73.932 121.871 73.5998 121.871 73.1863C121.871 72.8433 121.777 72.5345 121.588 72.2619C121.399 71.9893 121.087 71.7509 120.648 71.5487L120.073 71.2797C120.009 71.249 119.958 71.2129 119.92 71.175C119.88 71.1352 119.862 71.0739 119.862 70.9872C119.862 70.9402 119.871 70.8915 119.891 70.8409C119.911 70.7904 119.927 70.7525 119.944 70.729H120.731C120.92 70.7994 121.122 70.9005 121.338 71.0323C121.554 71.1641 121.757 71.332 121.949 71.5361C122.142 71.7383 122.299 71.973 122.425 72.2384C122.55 72.5038 122.613 72.8072 122.613 73.1502C122.613 73.2748 122.597 73.394 122.566 73.5077C122.535 73.6215 122.499 73.7352 122.461 73.8526L121.637 74.6127L120.285 74.555ZM125.341 70.7055V77.3391C125.294 77.3463 125.241 77.3572 125.183 77.368C125.125 77.3788 125.063 77.3861 125 77.3861C124.851 77.3861 124.735 77.359 124.653 77.3048C124.572 77.2507 124.53 77.1568 124.53 77.0232V70.7055H125.341Z" fill="#F7BBE9"/>
<path d="M126.598 70.7759C126.489 70.7759 126.406 70.747 126.351 70.6875C126.297 70.6297 126.27 70.5412 126.27 70.4239C126.27 70.3769 126.273 70.3245 126.282 70.2668C126.291 70.209 126.302 70.1512 126.317 70.097H132.69C132.799 70.097 132.883 70.1259 132.937 70.1855C132.992 70.2433 133.019 70.3318 133.019 70.4491C133.019 70.4961 133.015 70.5466 133.008 70.6008C133.001 70.655 132.988 70.7145 132.973 70.7759H126.6H126.598ZM127.173 75.4198C127.142 75.335 127.126 75.2483 127.126 75.1616C127.126 75.075 127.139 74.9955 127.161 74.9215C127.184 74.8475 127.215 74.7879 127.255 74.7409C127.427 74.7572 127.614 74.7716 127.814 74.7879C128.014 74.8041 128.2 74.8113 128.373 74.8113C129.22 74.8113 129.865 74.638 130.307 74.2913C130.75 73.9447 130.972 73.4861 130.972 72.9173C130.972 72.4804 130.839 72.1301 130.578 71.8647C130.317 71.5993 129.988 71.4675 129.596 71.4675C129.235 71.4675 128.93 71.583 128.68 71.8123C128.429 72.0416 128.304 72.3648 128.304 72.7783C128.304 72.8794 128.32 72.9895 128.351 73.1051C128.382 73.2225 128.413 73.3164 128.445 73.3868C128.406 73.45 128.353 73.5005 128.288 73.5384C128.22 73.5782 128.137 73.5962 128.035 73.5962C127.887 73.5962 127.749 73.524 127.623 73.3795C127.498 73.2351 127.435 73.0076 127.435 72.6952C127.435 72.3359 127.52 72.0182 127.694 71.7419C127.867 71.4657 128.097 71.2436 128.387 71.0757C128.678 70.9077 128.99 70.8084 129.327 70.7777H129.845C130.19 70.8084 130.513 70.915 130.816 71.0937C131.117 71.2725 131.362 71.5162 131.551 71.825C131.739 72.1337 131.834 72.502 131.834 72.93C131.834 73.468 131.696 73.923 131.422 74.2932C131.148 74.6633 130.776 74.945 130.304 75.1345C129.834 75.3259 129.297 75.4216 128.692 75.4216H128.48L128.246 74.907L128.645 75.3873C129.186 75.6058 129.669 75.8062 130.092 75.9904C130.514 76.1745 130.883 76.337 131.197 76.4815C131.511 76.6259 131.765 76.7523 131.961 76.8625C132.07 76.9166 132.151 76.978 132.202 77.043C132.253 77.1098 132.278 77.1965 132.278 77.3066C132.278 77.4077 132.248 77.5034 132.184 77.5937C132.12 77.684 132.039 77.7508 131.937 77.7977C131.467 77.5395 131.037 77.3084 130.649 77.1008C130.26 76.8932 129.888 76.7036 129.531 76.5266C129.173 76.3497 128.807 76.1745 128.431 75.994C128.055 75.8152 127.634 75.6238 127.173 75.4216V75.4198Z" fill="#F7BBE9"/>
<path d="M136.194 73.7822C136.194 73.9068 136.166 74.035 136.112 74.1686C136.058 74.3004 136.01 74.3979 135.97 74.4611L135.842 74.239L138.546 71.3501L139.17 71.8069L135.595 75.4921C135.517 75.4758 135.437 75.4415 135.353 75.3873C135.272 75.3332 135.199 75.2682 135.136 75.1941C135.072 75.1201 135.03 75.0479 135.007 74.9775L135.266 74.6741C135.352 74.573 135.417 74.4683 135.46 74.3582C135.504 74.2498 135.526 74.1325 135.526 74.0079C135.526 73.8364 135.459 73.6721 135.326 73.5168C135.194 73.3615 134.978 73.2821 134.68 73.2821H133.562C133.461 73.2821 133.375 73.2514 133.31 73.1882C133.243 73.125 133.203 73.0509 133.187 72.9661C133.179 72.9264 133.174 72.8921 133.174 72.8614V72.7801C133.174 72.3973 133.248 72.0398 133.397 71.704C133.546 71.3682 133.755 71.0721 134.021 70.8157C134.288 70.5575 134.604 70.3552 134.969 70.2072C135.333 70.0591 135.731 69.9851 136.163 69.9851C136.687 69.9851 137.143 70.079 137.528 70.2668C137.912 70.4546 138.232 70.6802 138.486 70.9457C138.74 71.2111 138.93 71.4639 139.056 71.7058L139.174 71.9279L138.95 72.4551L138.609 72.1969L138.315 71.8701C138.174 71.7058 138.005 71.5361 137.809 71.3609C137.613 71.1858 137.377 71.0359 137.103 70.9114C136.829 70.7868 136.495 70.7236 136.103 70.7236C135.609 70.7236 135.166 70.8843 134.774 71.2039C134.382 71.5234 134.136 71.9839 134.034 72.5851H134.716C135.156 72.5851 135.511 72.7007 135.787 72.93C136.061 73.1593 136.199 73.4464 136.199 73.7894L136.194 73.7822ZM140.767 70.0971C140.876 70.0971 140.959 70.1259 141.014 70.1855C141.068 70.2433 141.095 70.3318 141.095 70.4491C141.095 70.4961 141.092 70.5466 141.083 70.6008C141.074 70.655 141.063 70.7146 141.048 70.7759H138.696V70.7651C138.696 70.5864 138.754 70.4293 138.872 70.2975C138.99 70.1657 139.166 70.0989 139.4 70.0989H140.765L140.767 70.0971ZM139.509 70.7651V77.3391C139.462 77.3464 139.41 77.3572 139.351 77.368C139.293 77.3789 139.232 77.3861 139.17 77.3861C139.021 77.3861 138.905 77.359 138.823 77.3048C138.742 77.2507 138.7 77.1568 138.7 77.0232V70.7651H139.511H139.509Z" fill="#F7BBE9"/>
<path d="M140.533 70.7759C140.424 70.7759 140.34 70.747 140.286 70.6875C140.231 70.6297 140.204 70.5412 140.204 70.4239C140.204 70.3769 140.208 70.3245 140.215 70.2668C140.222 70.209 140.235 70.1512 140.249 70.097H141.473C141.685 70.097 141.866 70.144 142.019 70.2379C142.171 70.3318 142.277 70.4563 142.331 70.6116C142.371 70.4329 142.454 70.3011 142.583 70.2198C142.712 70.1386 142.859 70.097 143.024 70.097H143.87C143.979 70.097 144.062 70.1259 144.117 70.1855C144.171 70.2433 144.199 70.3318 144.199 70.4491C144.199 70.4961 144.195 70.5466 144.186 70.6008C144.177 70.655 144.166 70.7145 144.151 70.7759H143.151C142.979 70.7759 142.846 70.8211 142.752 70.9113C142.658 71.0016 142.611 71.1389 142.611 71.3266V77.4691C142.563 77.4763 142.511 77.4872 142.453 77.498C142.395 77.5107 142.333 77.5161 142.271 77.5161C142.122 77.5161 142.006 77.489 141.925 77.4348C141.843 77.3807 141.801 77.2868 141.801 77.1532V71.2111C141.801 71.063 141.763 70.9529 141.689 70.8843C141.614 70.8138 141.511 70.7795 141.376 70.7795H140.529L140.533 70.7759Z" fill="#F7BBE9"/>
<path d="M153.303 70.097C153.412 70.097 153.496 70.1259 153.55 70.1855C153.604 70.2433 153.632 70.3318 153.632 70.4491C153.632 70.4961 153.628 70.5466 153.621 70.6008C153.614 70.655 153.601 70.7145 153.586 70.7759H143.873C143.765 70.7759 143.681 70.747 143.627 70.6875C143.572 70.6297 143.545 70.5412 143.545 70.4239C143.545 70.3769 143.549 70.3245 143.558 70.2668C143.567 70.209 143.578 70.1512 143.592 70.097H153.305H153.303ZM144.507 68.1434L144.365 67.7697C144.146 67.5675 143.966 67.3219 143.824 67.033C143.683 66.7441 143.612 66.4715 143.612 66.2133C143.612 65.8937 143.677 65.6608 143.806 65.5163C143.935 65.3719 144.091 65.2997 144.271 65.2997C144.451 65.2997 144.576 65.3936 144.647 65.5813C144.576 65.659 144.523 65.7565 144.489 65.8738C144.454 65.9912 144.436 66.1032 144.436 66.2133C144.436 66.392 144.474 66.5708 144.549 66.7459C144.623 66.9211 144.719 67.0872 144.837 67.2425L144.507 68.1434ZM145.142 69.3134C144.75 69.3134 144.452 69.2286 144.249 69.0552C144.046 68.8837 143.944 68.6616 143.944 68.389C143.944 68.0694 144.075 67.7733 144.338 67.5007C144.601 67.228 144.962 67.0077 145.425 66.8398C145.888 66.6719 146.425 66.5888 147.037 66.5888C147.915 66.5888 148.699 66.7568 149.389 67.0926C150.078 67.4284 150.655 67.8961 151.116 68.4973C151.579 69.0986 151.904 69.7991 152.093 70.6026H151.316C151.089 69.8154 150.755 69.1798 150.316 68.6959C149.877 68.212 149.374 67.8582 148.804 67.6307C148.234 67.4032 147.643 67.2912 147.022 67.2912C146.59 67.2912 146.205 67.3418 145.864 67.4429C145.523 67.544 145.256 67.6758 145.064 67.8347C144.872 67.9954 144.775 68.1597 144.775 68.3312C144.775 68.5497 144.928 68.658 145.235 68.658H147.868C147.977 68.658 148.06 68.6869 148.115 68.7465C148.169 68.8043 148.196 68.8927 148.196 69.0101C148.196 69.057 148.193 69.104 148.185 69.1509C148.178 69.1979 148.165 69.252 148.151 69.3152H145.14L145.142 69.3134ZM144.249 74.8583C144.485 74.7337 144.721 74.5893 144.96 74.425C145.2 74.2607 145.421 74.0602 145.625 73.8219C145.828 73.5836 145.993 73.2965 146.118 72.9625C146.244 72.6266 146.307 72.2294 146.307 71.769C146.307 71.5433 146.278 71.3284 146.218 71.1262C146.16 70.924 146.098 70.7633 146.035 70.6459H146.775C146.837 70.8572 146.895 71.0955 146.946 71.3664C146.997 71.6354 147.022 71.8719 147.022 72.0741C147.022 72.5418 146.957 72.9462 146.828 73.2857C146.699 73.6251 146.538 73.914 146.345 74.1523C146.153 74.3907 145.953 74.5893 145.746 74.7482C145.539 74.9088 145.352 75.0425 145.187 75.1526C145.274 75.5119 145.472 75.8243 145.781 76.0879C146.091 76.3533 146.465 76.4851 146.904 76.4851C147.414 76.4851 147.846 76.3352 148.204 76.0355C148.561 75.7358 148.739 75.2772 148.739 74.6615C148.739 74.248 148.646 73.8652 148.463 73.515C148.28 73.1647 148.015 72.7982 147.67 72.4154C147.325 72.0326 146.902 71.5884 146.4 71.0811L146.93 70.7073L147.412 71.175C147.608 71.3627 147.83 71.5812 148.077 71.8304C148.323 72.0795 148.563 72.3558 148.793 72.6555C149.024 72.9552 149.216 73.2802 149.369 73.6269C149.521 73.9736 149.597 74.3419 149.597 74.7319C149.597 75.2627 149.476 75.7123 149.233 76.0825C148.989 76.4526 148.668 76.7361 148.269 76.9311C147.87 77.1261 147.43 77.2236 146.951 77.2236C146.427 77.2236 145.971 77.1152 145.587 76.8968C145.202 76.6783 144.897 76.3876 144.67 76.0247C144.443 75.6618 144.302 75.2736 144.247 74.8601L144.249 74.8583ZM145.636 68.7519C145.832 69.0101 146.011 69.2502 146.176 69.4777C146.342 69.7034 146.541 69.9652 146.775 70.2614L145.964 70.2487L145.129 69.2195L145.636 68.7519ZM152.044 70.682V77.4204C151.997 77.4276 151.944 77.4384 151.886 77.4493C151.828 77.4619 151.766 77.4673 151.703 77.4673C151.554 77.4673 151.438 77.4402 151.356 77.3861C151.274 77.3319 151.232 77.238 151.232 77.1044V70.682H152.044Z" fill="#F7BBE9"/>
<path d="M102.826 48.8367V27.0382H92.982C90.2144 28.934 87.5521 30.9779 84.995 33.1645C83.9479 34.0618 82.9552 34.9411 82.0151 35.8078L82.398 29.1977V22.6886H107.526L107.031 15.7408H0L0.495444 22.6886H20.2261C19.0447 23.465 18.1173 24.4382 17.4458 25.6154C16.758 26.8179 16.415 28.2678 16.415 29.965V30.7577C16.415 33.475 17.2135 35.5261 18.8069 36.911C20.4021 38.2976 22.6199 38.991 25.4619 38.991C26.8538 38.991 28.0951 38.8483 29.1859 38.5667C29.5524 38.471 29.9118 38.3608 30.2693 38.2417C30.2439 39.9064 29.596 41.1558 28.3184 41.9846C27.0171 42.8332 25.2495 43.2575 23.0137 43.2575C21.1626 43.2575 19.6236 43.0029 18.395 42.492C17.1663 41.981 16.1863 41.284 15.455 40.3993C14.7218 39.5146 14.1791 38.4981 13.8325 37.3497C13.4841 36.2014 13.2627 34.979 13.1719 33.6826L12.7327 26.7367H3.822L4.17952 34.2857C4.43541 39.7204 6.16674 43.8642 9.37533 46.7188C12.5839 49.5733 17.1191 50.9979 22.9846 50.9979C28.2095 50.9979 32.1803 49.9327 34.9043 47.7985C37.6247 45.6643 38.9877 42.6833 38.9877 38.8538C38.9877 38.2706 38.9768 37.691 38.9586 37.115C38.9405 36.5408 38.9078 35.9667 38.8624 35.3925C38.8171 34.8165 38.7481 34.2568 38.6574 33.7097L31.5923 30.5915L30.135 31.4383C29.7321 31.6749 29.3002 31.8861 28.8428 32.0667C28.3837 32.2508 27.9064 32.3411 27.4128 32.3411C26.7359 32.3411 26.235 32.1714 25.9156 31.8338C25.5943 31.4961 25.4328 30.9545 25.4328 30.2051V29.7953C25.4328 28.721 25.7304 27.7947 26.3275 27.0183C26.9246 26.2438 27.7431 25.6028 28.7884 25.09C29.5234 24.7325 30.3274 24.4382 31.1985 24.2035C31.879 25.3518 32.7157 26.4171 33.712 27.4011C35.3236 28.9972 37.3398 30.2846 39.7608 31.2578C40.7136 31.6424 41.7262 31.9638 42.797 32.2274C42.6609 32.9857 42.5429 33.7458 42.4413 34.5132C42.2489 35.9613 42.111 37.4075 42.0275 38.8483C41.9458 40.2892 41.9041 41.7029 41.9041 43.0878C41.9041 44.0375 41.9186 45.0071 41.9458 46.002C41.973 46.995 42.0239 47.9664 42.0964 48.9161C42.1709 49.864 42.2634 50.747 42.3723 51.5685H51.1143C51.0961 50.2378 51.087 48.8006 51.087 47.2604V43.0896C51.087 41.4303 51.1251 39.7313 51.1977 37.9871C51.2721 36.2465 51.372 34.515 51.5008 32.7907C51.6278 31.0664 51.7839 29.4306 51.9672 27.8814C49.8584 27.6449 47.9202 27.2206 46.1526 26.6085C44.3849 25.9982 42.8278 25.2146 41.4794 24.2558C40.797 23.7701 40.1782 23.2465 39.6265 22.6832H57.4389V50.9925H66.6763V22.6886H73.1643V45.9117H82.0169C83.3 44.6893 84.6738 43.4525 86.1384 42.2049C87.6047 40.9554 89.1038 39.7295 90.6355 38.5251C91.728 37.6657 92.8078 36.8315 93.8749 36.0226L93.5918 40.8778V46.4877C93.0183 46.4515 92.443 46.4299 91.8587 46.4299C88.1927 46.4299 85.3471 47.0907 83.3218 48.4142C81.2964 49.7358 80.2856 51.6552 80.2856 54.1721C80.2856 56.689 81.1749 58.4621 82.9516 59.7657C84.7283 61.0693 87.24 61.7211 90.4848 61.7211C92.9421 61.7211 94.9929 61.3799 96.6425 60.6956C98.2922 60.0131 99.539 59.0507 100.381 57.8103C100.904 57.0429 101.263 56.1943 101.461 55.2663C104.55 56.9436 107.918 59.4028 111.571 62.6528L112.23 55.185C110.268 53.3975 108.216 51.852 106.072 50.5483C105.018 49.9074 103.934 49.3368 102.827 48.8367H102.826ZM93.4503 55.0189C92.9367 55.5678 91.9748 55.8404 90.5629 55.8404C89.8841 55.8404 89.3669 55.6978 89.0094 55.4161C88.6519 55.1345 88.4722 54.7372 88.4722 54.2263C88.4722 53.7153 88.7644 53.282 89.3524 52.9822C89.9386 52.6807 90.8823 52.529 92.1853 52.529C92.8459 52.529 93.5247 52.5814 94.2143 52.6807C94.1925 53.7153 93.9403 54.4971 93.4503 55.0189Z" fill="white" fill-opacity="0.92"/>
<path d="M187.779 26.4911C186.432 25.211 184.944 23.9453 183.318 22.6886H196L195.504 15.7408H178.445C177.421 14.6052 176.59 13.52 175.955 12.4854C175.294 11.4093 174.814 10.3296 174.512 9.24446C174.209 8.15932 174.059 7.02543 174.059 5.83918C174.059 3.99751 174.507 2.11973 175.405 0.204041H166.745C165.81 1.68098 165.342 3.41432 165.342 5.40043C165.342 6.62279 165.502 7.83974 165.823 9.05126C166.144 10.2646 166.68 11.4725 167.431 12.675C168.068 13.697 168.886 14.7171 169.881 15.739H132.351V21.784H132.076C131.49 19.5054 130.28 17.8082 128.447 16.696C126.614 15.5838 124.14 15.0277 121.024 15.0277C116.736 15.0277 113.486 16.1218 111.279 18.3102C109.07 20.4985 107.965 23.6077 107.965 27.6377V30.6186L116.179 35.7338L109.422 39.7276L115.553 44.924L131.635 35.8854V50.9961H140.873V22.6886H147.417V50.9997H156.655V22.6886H171.28V24.0843C171.28 25.8899 171.106 27.4264 170.757 28.6939C170.409 29.9614 169.868 31.0321 169.135 31.9078C168.402 32.7835 167.449 33.5256 166.275 34.1377C165.101 34.7479 163.691 35.3004 162.041 35.7915V38.3627C162.041 41.0439 162.651 43.346 163.868 45.2689C165.086 47.1936 166.861 48.6706 169.188 49.6997C171.514 50.7307 174.32 51.2453 177.601 51.2453C180.882 51.2453 183.654 50.7433 185.973 49.7413C188.29 48.7392 190.069 47.2749 191.307 45.352C192.544 43.429 193.163 41.089 193.163 38.3356V37.8426C193.163 35.49 192.677 33.4028 191.706 31.5792C190.735 29.7556 189.425 28.0602 187.775 26.4911H187.779ZM123.249 31.5575L117.836 28.1811V28.0493C117.836 26.4261 118.34 25.1767 119.347 24.3028C120.355 23.4271 121.868 22.9902 123.884 22.9902C125.661 22.9902 127.184 23.3693 128.449 24.1258C129.516 24.765 130.412 25.6895 131.14 26.8938L123.249 31.5575ZM183.793 37.4039C183.793 38.6263 183.559 39.6879 183.093 40.5907C182.625 41.4935 181.919 42.1868 180.975 42.6689C180.031 43.1528 178.853 43.3929 177.441 43.3929C176.029 43.3929 174.879 43.1979 173.935 42.8043C172.991 42.4125 172.28 41.8239 171.805 41.0403C171.52 40.5727 171.322 40.0328 171.208 39.4207C172.041 39.1318 172.803 38.7924 173.494 38.4006C175.282 37.3895 176.61 35.9757 177.481 34.1611C178.238 32.5831 178.666 30.6638 178.764 28.4032C179.407 29.0189 180.026 29.6508 180.616 30.3045C181.559 31.3535 182.325 32.4477 182.911 33.587C183.497 34.7263 183.791 35.8981 183.791 37.1024V37.4039H183.793Z" fill="white" fill-opacity="0.92"/>
</g>
<defs>
<clipPath id="clip0_445_19587">
<rect width="196" height="78" fill="white"/>
</clipPath>
</defs>
</svg>
