<svg width="360" height="70" viewBox="0 0 360 70" fill="none" xmlns="http://www.w3.org/2000/svg">
<rect width="360" height="70" fill="url(#paint0_linear_448_4394)"/>
<g clip-path="url(#clip0_448_4394)">
<path d="M266.417 51.8107V52.2949C266.385 52.3193 266.344 52.3404 266.295 52.3583C266.245 52.3754 266.191 52.3843 266.131 52.3843C266.046 52.3843 265.974 52.3673 265.914 52.3339C265.854 52.3006 265.799 52.2397 265.749 52.1519L264.744 50.4676C264.691 50.3726 264.633 50.2686 264.569 50.154C264.506 50.0403 264.446 49.9314 264.39 49.8274C264.333 49.7242 264.289 49.6389 264.257 49.5723L263.866 49.6722V49.2139C263.894 49.1855 263.934 49.1628 263.985 49.1457C264.037 49.1278 264.092 49.1197 264.152 49.1197C264.237 49.1197 264.309 49.1368 264.369 49.1701C264.429 49.2034 264.484 49.2643 264.533 49.3521L265.544 51.0364C265.601 51.1314 265.66 51.2354 265.722 51.35C265.784 51.4638 265.841 51.5726 265.894 51.6766C265.947 51.7806 265.99 51.8651 266.021 51.9318L266.418 51.8318V51.8107H266.417ZM264.226 49.4837C264.24 49.5926 264.252 49.7209 264.263 49.868C264.274 50.0151 264.282 50.167 264.287 50.323C264.293 50.479 264.295 50.6277 264.295 50.7674V52.3413C264.277 52.3486 264.25 52.3559 264.213 52.3648C264.177 52.3738 264.138 52.3778 264.1 52.3778C264.022 52.3778 263.964 52.3632 263.925 52.3331C263.886 52.3031 263.867 52.2551 263.867 52.1885V49.5138L264.227 49.4821L264.226 49.4837ZM266.052 52.0211C266.016 51.7262 265.996 51.4256 265.99 51.1184C265.985 50.8113 265.982 50.5139 265.982 50.2263V49.1628C266.003 49.1554 266.031 49.1481 266.067 49.1392C266.102 49.1303 266.141 49.1262 266.184 49.1262C266.261 49.1262 266.319 49.1408 266.359 49.1709C266.398 49.2009 266.417 49.2489 266.417 49.3155V51.9903L266.052 52.0219V52.0211Z" fill="#F7BBE9"/>
<path d="M269.708 49.5048C269.708 49.5503 269.693 49.5918 269.663 49.6283C269.633 49.6649 269.599 49.6925 269.56 49.7096C269.472 49.6462 269.365 49.5869 269.24 49.5308C269.115 49.4748 268.953 49.4463 268.756 49.4463C268.541 49.4463 268.347 49.4959 268.177 49.5934C268.005 49.6917 267.87 49.8379 267.769 50.0329C267.669 50.2279 267.618 50.4693 267.618 50.7569C267.618 51.1883 267.725 51.5133 267.938 51.7311C268.151 51.9488 268.43 52.0577 268.771 52.0577C268.955 52.0577 269.115 52.0317 269.253 51.9789C269.391 51.9261 269.504 51.8668 269.592 51.8001C269.627 51.8139 269.661 51.8399 269.693 51.8765C269.724 51.9131 269.74 51.9561 269.74 52.0057C269.74 52.0406 269.73 52.0748 269.71 52.1081C269.691 52.1414 269.658 52.1739 269.612 52.2056C269.532 52.2616 269.42 52.312 269.279 52.3559C269.138 52.3998 268.958 52.4217 268.739 52.4217C268.447 52.4217 268.181 52.3591 267.943 52.2348C267.705 52.1105 267.517 51.9253 267.38 51.6791C267.242 51.4337 267.173 51.1266 267.173 50.7577C267.173 50.3888 267.244 50.0801 267.387 49.8314C267.53 49.582 267.719 49.3951 267.953 49.2708C268.187 49.1465 268.445 49.0839 268.723 49.0839C268.917 49.0839 269.088 49.1051 269.237 49.1473C269.385 49.1896 269.501 49.2432 269.583 49.3082C269.666 49.3732 269.707 49.439 269.707 49.5056L269.708 49.5048Z" fill="#F7BBE9"/>
<path d="M271.492 49.5154H270.254C270.243 49.4975 270.232 49.4731 270.222 49.4415C270.211 49.4098 270.206 49.3765 270.206 49.3415C270.206 49.2822 270.22 49.2351 270.249 49.2018C270.277 49.1685 270.317 49.1514 270.37 49.1514H271.466L271.492 49.5146V49.5154ZM271.671 49.3732V52.3421C271.653 52.3494 271.626 52.3567 271.59 52.3656C271.553 52.3746 271.515 52.3786 271.476 52.3786C271.399 52.3786 271.341 52.3632 271.301 52.3315C271.262 52.2998 271.243 52.2511 271.243 52.1845V49.3732H271.672H271.671ZM271.428 49.1522H272.661C272.672 49.166 272.682 49.1888 272.693 49.2205C272.704 49.2521 272.709 49.2855 272.709 49.3204C272.709 49.3765 272.695 49.4228 272.666 49.4601C272.638 49.4967 272.597 49.5154 272.544 49.5154H271.454L271.428 49.1522Z" fill="#F7BBE9"/>
<path d="M274.624 50.5993C274.864 50.5993 275.063 50.6391 275.222 50.7179C275.38 50.7967 275.5 50.9015 275.579 51.0315C275.658 51.1615 275.698 51.307 275.698 51.4687C275.698 51.788 275.582 52.0252 275.352 52.1796C275.121 52.334 274.791 52.4112 274.365 52.4112C274.27 52.4112 274.175 52.4087 274.079 52.403C273.984 52.3982 273.891 52.3884 273.799 52.3738C273.708 52.36 273.62 52.3421 273.535 52.321C273.387 52.2787 273.312 52.1983 273.312 52.0788V49.383C273.312 49.3269 273.327 49.283 273.357 49.2513C273.388 49.2197 273.431 49.1969 273.487 49.1831C273.607 49.1482 273.735 49.1246 273.871 49.1124C274.007 49.1002 274.152 49.0937 274.308 49.0937C274.707 49.0937 275.017 49.1644 275.239 49.3066C275.461 49.4488 275.572 49.6657 275.572 49.9566C275.572 50.1037 275.536 50.2402 275.464 50.3645C275.391 50.4888 275.275 50.5887 275.114 50.6643C274.953 50.7398 274.739 50.7772 274.471 50.7772L274.424 50.514C274.657 50.514 274.833 50.466 274.953 50.3693C275.073 50.2727 275.133 50.1386 275.133 49.9663C275.133 49.7941 275.063 49.66 274.924 49.5739C274.784 49.4878 274.579 49.4447 274.307 49.4447C274.187 49.4447 274.081 49.4496 273.99 49.4577C273.898 49.4667 273.813 49.478 273.736 49.4918V51.9976C273.82 52.0155 273.918 52.0293 274.03 52.0398C274.141 52.0504 274.252 52.0553 274.365 52.0553C274.658 52.0553 274.88 52.0065 275.032 51.9082C275.184 51.8099 275.26 51.6588 275.26 51.4557C275.26 51.2728 275.192 51.1282 275.057 51.021C274.921 50.9137 274.72 50.8601 274.457 50.8601L274.626 50.5968L274.624 50.5993ZM275.063 50.8625H273.607V50.5148H275.063V50.8625Z" fill="#F7BBE9"/>
<path d="M276.332 51.1526C276.322 51.1282 276.313 51.1022 276.306 51.0762C276.299 51.0502 276.296 51.0193 276.296 50.9844C276.296 50.9251 276.313 50.8796 276.346 50.8503C276.38 50.8203 276.425 50.8057 276.481 50.8057H277.746C277.753 50.8268 277.761 50.8512 277.77 50.8796C277.779 50.908 277.783 50.9373 277.783 50.969C277.783 51.025 277.767 51.0697 277.735 51.103C277.704 51.1363 277.658 51.1534 277.597 51.1534H276.333L276.332 51.1526Z" fill="#F7BBE9"/>
<path d="M278.058 49.3992C278.009 49.3992 277.971 49.3862 277.947 49.3594C277.922 49.3334 277.91 49.2936 277.91 49.2408C277.91 49.2197 277.912 49.1961 277.915 49.1701C277.918 49.1441 277.924 49.1181 277.931 49.0937H279.454C279.503 49.0937 279.541 49.1067 279.566 49.1335C279.59 49.1595 279.602 49.1994 279.602 49.2522C279.602 49.2733 279.601 49.296 279.597 49.3204C279.593 49.3448 279.588 49.3716 279.581 49.3992H278.057H278.058ZM278.513 49.1571C278.457 49.1084 278.413 49.0425 278.383 48.9597C278.353 48.8776 278.338 48.7834 278.338 48.6777C278.338 48.5055 278.39 48.3495 278.492 48.2089C278.594 48.0684 278.744 47.9562 278.942 47.8717C279.139 47.7872 279.381 47.745 279.667 47.745C279.935 47.745 280.177 47.7742 280.394 47.8319C280.612 47.8896 280.796 47.9554 280.95 48.0294C281.103 48.1033 281.217 48.1659 281.291 48.2187C281.355 48.2609 281.398 48.2999 281.421 48.3373C281.444 48.3739 281.455 48.4104 281.455 48.4454C281.455 48.4909 281.443 48.5258 281.419 48.551C281.394 48.5754 281.367 48.5965 281.339 48.6144C281.12 48.46 280.868 48.33 280.582 48.2244C280.296 48.1187 279.998 48.0667 279.688 48.0667C279.477 48.0667 279.299 48.096 279.156 48.1537C279.013 48.2114 278.906 48.2894 278.834 48.3877C278.761 48.486 278.725 48.5965 278.725 48.7192C278.725 48.828 278.745 48.9158 278.783 48.9824C278.822 49.049 278.866 49.0986 278.915 49.1295L278.514 49.1555L278.513 49.1571ZM278.889 49.357V52.3892C278.867 52.3925 278.844 52.3974 278.817 52.4022C278.791 52.4079 278.764 52.4104 278.736 52.4104C278.669 52.4104 278.617 52.3982 278.58 52.3738C278.543 52.3494 278.524 52.3072 278.524 52.247V49.357H278.889H278.889Z" fill="#F7BBE9"/>
<path d="M279.401 49.3992C279.352 49.3992 279.315 49.3862 279.29 49.3594C279.266 49.3334 279.254 49.2936 279.254 49.2408C279.254 49.2197 279.255 49.1961 279.259 49.1701C279.263 49.1441 279.268 49.1181 279.275 49.0937H283.174C283.223 49.0937 283.261 49.1067 283.286 49.1335C283.31 49.1595 283.322 49.1993 283.322 49.2522C283.322 49.2733 283.321 49.296 283.317 49.3204C283.313 49.3448 283.308 49.3716 283.301 49.3992H279.401ZM281.556 52.1365C281.217 52.1365 280.922 52.0667 280.67 51.9261C280.417 51.7855 280.212 51.593 280.053 51.3468C279.895 51.1014 279.785 50.8203 279.725 50.5042C279.714 50.4482 279.706 50.3921 279.701 50.336C279.696 50.28 279.693 50.2304 279.693 50.189C279.693 50.0768 279.716 50.0021 279.762 49.9655C279.807 49.929 279.86 49.9103 279.92 49.9103C279.952 49.9103 279.98 49.9135 280.005 49.9208C280.029 49.9282 280.049 49.9347 280.063 49.942L280.078 50.1207C280.114 50.4855 280.199 50.7935 280.332 51.0445C280.466 51.2956 280.639 51.4849 280.849 51.6133C281.058 51.7417 281.294 51.8058 281.555 51.8058C281.7 51.8058 281.842 51.7774 281.984 51.7213C282.125 51.6653 282.242 51.5792 282.336 51.4638C282.429 51.3476 282.476 51.2022 282.476 51.0267C282.476 50.9007 282.461 50.791 282.429 50.6976C282.397 50.605 282.353 50.5245 282.297 50.4579C282.145 50.553 281.999 50.631 281.86 50.6919C281.72 50.7537 281.561 50.7837 281.381 50.7837C281.244 50.7837 281.118 50.7553 281.005 50.6992C280.893 50.6432 280.802 50.5627 280.733 50.4571C280.664 50.3515 280.63 50.2272 280.63 50.0833C280.63 49.9501 280.657 49.8347 280.711 49.7388C280.766 49.6422 280.836 49.565 280.92 49.5073C281.005 49.4496 281.094 49.4138 281.185 49.3992H281.482C281.559 49.4065 281.616 49.4301 281.654 49.4699C281.691 49.5105 281.709 49.5495 281.709 49.5885C281.709 49.6308 281.7 49.6649 281.683 49.6909C281.665 49.7169 281.646 49.7388 281.625 49.7567C281.59 49.7388 281.557 49.7258 281.525 49.7169C281.493 49.708 281.447 49.7039 281.388 49.7039C281.307 49.7039 281.224 49.7332 281.142 49.7908C281.058 49.8485 281.018 49.9412 281.018 50.0671C281.018 50.1833 281.054 50.2759 281.129 50.3458C281.203 50.4157 281.302 50.4514 281.425 50.4514C281.503 50.4514 281.589 50.436 281.682 50.4043C281.775 50.3726 281.909 50.3076 282.081 50.2093L282.367 50.0411C282.416 50.0801 282.47 50.128 282.528 50.1857C282.587 50.2434 282.641 50.3141 282.693 50.3962C282.744 50.479 282.785 50.5741 282.817 50.683C282.849 50.7918 282.864 50.9162 282.864 51.0567C282.864 51.2745 282.806 51.4646 282.689 51.6279C282.573 51.7912 282.417 51.9163 282.221 52.0041C282.025 52.0918 281.804 52.1357 281.557 52.1357L281.556 52.1365Z" fill="#F7BBE9"/>
<path d="M283.101 49.3992C283.052 49.3992 283.015 49.3862 282.99 49.3594C282.966 49.3334 282.953 49.2936 282.953 49.2408C282.953 49.2197 282.955 49.1961 282.958 49.1701C282.962 49.1441 282.967 49.1181 282.974 49.0937H284.498C284.547 49.0937 284.584 49.1067 284.609 49.1335C284.633 49.1595 284.646 49.1994 284.646 49.2522C284.646 49.2733 284.644 49.296 284.64 49.3204C284.637 49.3448 284.631 49.3716 284.624 49.3992H283.1H283.101ZM283.556 49.1571C283.5 49.1084 283.456 49.0425 283.426 48.9597C283.396 48.8776 283.381 48.7834 283.381 48.6777C283.381 48.5055 283.433 48.3495 283.535 48.2089C283.637 48.0684 283.787 47.9562 283.985 47.8717C284.182 47.7872 284.424 47.745 284.71 47.745C284.978 47.745 285.22 47.7742 285.438 47.8319C285.655 47.8896 285.839 47.9554 285.993 48.0294C286.147 48.1033 286.26 48.1659 286.334 48.2187C286.398 48.2609 286.441 48.2999 286.464 48.3373C286.487 48.3739 286.499 48.4104 286.499 48.4454C286.499 48.4909 286.486 48.5258 286.462 48.551C286.437 48.5754 286.41 48.5965 286.383 48.6144C286.164 48.46 285.911 48.33 285.626 48.2244C285.34 48.1187 285.042 48.0667 284.731 48.0667C284.52 48.0667 284.343 48.096 284.2 48.1537C284.057 48.2114 283.949 48.2894 283.877 48.3877C283.804 48.486 283.768 48.5965 283.768 48.7192C283.768 48.828 283.788 48.9158 283.826 48.9824C283.865 49.049 283.909 49.0986 283.959 49.1295L283.557 49.1555L283.556 49.1571ZM283.932 49.357V52.3892C283.911 52.3925 283.887 52.3974 283.861 52.4022C283.835 52.4079 283.807 52.4104 283.779 52.4104C283.712 52.4104 283.66 52.3982 283.623 52.3738C283.586 52.3494 283.568 52.3072 283.568 52.247V49.357H283.933H283.932Z" fill="#F7BBE9"/>
<path d="M284.498 49.3992C284.449 49.3992 284.411 49.3862 284.387 49.3594C284.362 49.3334 284.35 49.2936 284.35 49.2408C284.35 49.2197 284.352 49.1961 284.356 49.1701C284.36 49.1441 284.365 49.1181 284.371 49.0937H288.07C288.119 49.0937 288.157 49.1067 288.181 49.1335C288.206 49.1595 288.218 49.1993 288.218 49.2522C288.218 49.2733 288.216 49.296 288.212 49.3204C288.208 49.3448 288.203 49.3716 288.197 49.3992H284.498ZM284.72 50.41C284.72 50.2694 284.745 50.1784 284.797 50.1362C284.848 50.0939 284.907 50.0728 284.974 50.0728C284.995 50.0728 285.018 50.0752 285.043 50.0809C285.067 50.0858 285.087 50.0955 285.101 50.1102V50.2207C285.101 50.6107 285.161 50.9478 285.284 51.2338C285.405 51.5198 285.57 51.74 285.778 51.8944C285.987 52.0488 286.223 52.126 286.487 52.126C286.706 52.126 286.885 52.0723 287.025 51.9651C287.164 51.8578 287.234 51.7116 287.234 51.5255C287.234 51.4028 287.202 51.2972 287.139 51.2095C287.075 51.1217 286.989 51.0551 286.879 51.0096L287.165 50.8146C287.303 50.878 287.415 50.9747 287.502 51.1038C287.588 51.2338 287.631 51.3809 287.631 51.5458C287.631 51.7392 287.582 51.9042 287.484 52.0407C287.385 52.1772 287.25 52.2812 287.079 52.351C286.907 52.4209 286.711 52.4567 286.489 52.4567C286.197 52.4567 285.927 52.3868 285.682 52.2462C285.437 52.1057 285.231 51.9042 285.065 51.6409C284.9 51.3777 284.792 51.0616 284.743 50.6935C284.736 50.6342 284.731 50.5773 284.727 50.5253C284.724 50.4725 284.722 50.4343 284.722 50.4092L284.72 50.41ZM286.059 50.163C286.059 50.1979 286.066 50.2361 286.08 50.2759C286.094 50.3165 286.108 50.3507 286.122 50.3783C286.108 50.4027 286.086 50.4246 286.056 50.4441C286.026 50.4636 285.988 50.4733 285.943 50.4733C285.872 50.4733 285.809 50.4441 285.752 50.3864C285.696 50.3287 285.667 50.2402 285.667 50.1207C285.667 49.9907 285.7 49.8745 285.765 49.7705C285.831 49.6673 285.924 49.5828 286.045 49.5178C286.167 49.4528 286.313 49.4138 286.482 49.3992H286.683C286.863 49.4098 287.013 49.4528 287.133 49.5284C287.253 49.604 287.343 49.6998 287.403 49.8152C287.462 49.9314 287.493 50.0573 287.493 50.1947C287.493 50.3563 287.459 50.4969 287.392 50.6155C287.325 50.735 287.246 50.8243 287.154 50.8837C287.132 50.9015 287.111 50.9202 287.09 50.9413C287.069 50.9625 287.04 50.982 287.005 50.999C286.949 51.0307 286.874 51.0632 286.783 51.0965C286.691 51.1298 286.601 51.1469 286.513 51.1469C286.46 51.1469 286.416 51.1315 286.381 51.0998C286.346 51.0681 286.328 51.0137 286.328 50.9365C286.328 50.9227 286.328 50.9105 286.331 50.8999C286.332 50.8893 286.335 50.8772 286.339 50.8633C286.504 50.8422 286.645 50.8016 286.759 50.7423C286.874 50.683 286.96 50.6074 287.018 50.5156C287.076 50.4246 287.106 50.3247 287.106 50.2158C287.106 50.0508 287.053 49.9257 286.95 49.8396C286.846 49.7535 286.723 49.7104 286.582 49.7104C286.451 49.7104 286.331 49.747 286.222 49.8209C286.112 49.8948 286.058 50.0086 286.058 50.163H286.059Z" fill="#F7BBE9"/>
<path d="M287.948 49.3992C287.899 49.3992 287.862 49.3862 287.837 49.3594C287.813 49.3334 287.8 49.2936 287.8 49.2408C287.8 49.2197 287.802 49.1961 287.806 49.1701C287.81 49.1441 287.815 49.1181 287.822 49.0937H291.928C291.977 49.0937 292.014 49.1067 292.039 49.1335C292.063 49.1595 292.076 49.1993 292.076 49.2522C292.076 49.2733 292.074 49.296 292.071 49.3204C292.067 49.3448 292.062 49.3716 292.055 49.3992H287.949H287.948ZM290.35 49.357V52.3527C290.329 52.3665 290.299 52.3795 290.263 52.3925C290.226 52.4047 290.186 52.4112 290.143 52.4112H290.12C290.111 52.4112 290.101 52.4095 290.09 52.4063C289.875 52.2202 289.661 52.0504 289.448 51.8952C289.234 51.7408 289.02 51.5962 288.805 51.4605C288.589 51.3257 288.371 51.1965 288.149 51.0738C288.135 51.0421 288.124 51.0039 288.115 50.9576C288.106 50.9121 288.102 50.865 288.102 50.8154V50.7683C288.102 50.7472 288.103 50.7301 288.107 50.7155C288.272 50.5928 288.463 50.4725 288.678 50.3547C288.893 50.2369 289.115 50.1305 289.342 50.0338C289.569 49.9371 289.784 49.8623 289.985 49.8103V49.3578H290.35V49.357ZM289.985 50.163C289.734 50.2328 289.474 50.332 289.204 50.4603C288.935 50.5887 288.691 50.7244 288.476 50.8682C288.709 51.0015 288.928 51.138 289.132 51.2761C289.337 51.415 289.518 51.5426 289.675 51.6604C289.831 51.7782 289.952 51.8757 290.037 51.9529C290.03 51.883 290.022 51.7904 290.013 51.6767C290.004 51.5629 289.998 51.4483 289.992 51.3346C289.987 51.2208 289.984 51.1282 289.984 51.0583V50.1638L289.985 50.163ZM290.99 51.5158C290.913 51.5158 290.851 51.4971 290.808 51.4605C290.764 51.424 290.742 51.372 290.742 51.3053C290.742 51.281 290.744 51.259 290.75 51.2395C290.755 51.22 290.76 51.2038 290.763 51.1892H290.848C290.989 51.1892 291.099 51.1518 291.176 51.0762C291.254 51.0007 291.293 50.9032 291.293 50.7837C291.293 50.5806 291.193 50.4238 290.992 50.3149C290.791 50.206 290.534 50.1483 290.219 50.141V49.8095C290.512 49.8095 290.767 49.8502 290.986 49.9306C291.205 50.011 291.375 50.1248 291.497 50.2702C291.618 50.4157 291.679 50.5871 291.679 50.7837C291.679 50.9413 291.646 51.0754 291.579 51.1835C291.512 51.2923 291.426 51.3752 291.323 51.4313C291.218 51.4873 291.109 51.5158 290.992 51.5158H290.99Z" fill="#F7BBE9"/>
<path d="M294.53 49.4837C294.477 49.6308 294.414 49.8063 294.342 50.0102C294.271 50.2142 294.196 50.4238 294.12 50.6391C294.044 50.8544 293.973 51.0559 293.906 51.242L293.88 51.3208C293.859 51.3842 293.833 51.463 293.801 51.558C293.769 51.6531 293.736 51.7522 293.701 51.8554C293.665 51.9586 293.632 52.0553 293.6 52.1447C293.568 52.234 293.544 52.3072 293.526 52.3632C293.501 52.3738 293.475 52.3819 293.449 52.3868C293.423 52.3925 293.389 52.3949 293.351 52.3949C293.295 52.3949 293.244 52.3803 293.2 52.3502C293.156 52.3202 293.134 52.2722 293.134 52.2056C293.134 52.1739 293.139 52.1414 293.149 52.1081C293.16 52.0748 293.172 52.039 293.186 52C293.229 51.8806 293.28 51.7352 293.342 51.5629C293.404 51.3907 293.472 51.203 293.545 50.9999C293.62 50.7967 293.697 50.5871 293.778 50.3734C293.859 50.1597 293.938 49.9509 294.016 49.747C294.093 49.5438 294.166 49.357 294.233 49.1888C294.262 49.175 294.303 49.1604 294.36 49.1465C294.417 49.1327 294.475 49.1254 294.535 49.1254C294.605 49.1254 294.673 49.136 294.739 49.1571C294.804 49.1782 294.846 49.2132 294.863 49.2627C294.948 49.4667 295.038 49.6974 295.135 49.955C295.233 50.2125 295.331 50.4815 295.429 50.7602C295.528 51.0388 295.623 51.3102 295.713 51.5735C295.803 51.8367 295.883 52.0756 295.954 52.2893C295.929 52.321 295.897 52.3462 295.856 52.3657C295.815 52.3852 295.77 52.3949 295.721 52.3949C295.654 52.3949 295.603 52.3803 295.567 52.3502C295.532 52.3202 295.502 52.2706 295.478 52.1999L295.187 51.3419L295.144 51.1948C295.074 50.9812 295.001 50.765 294.925 50.5473C294.849 50.3295 294.779 50.128 294.713 49.942C294.648 49.7559 294.594 49.6032 294.552 49.4837H294.53ZM293.811 51.1469H295.287L295.372 51.4995H293.674L293.812 51.1469H293.811Z" fill="#F7BBE9"/>
<path d="M296.583 50.7943V49.162C296.601 49.1547 296.628 49.1473 296.665 49.1384C296.702 49.1295 296.742 49.1254 296.784 49.1254C296.862 49.1254 296.919 49.14 296.957 49.1701C296.993 49.2002 297.012 49.2497 297.012 49.3204V50.7943H296.583ZM297.012 50.4417V52.3421C296.994 52.3494 296.968 52.3567 296.933 52.3657C296.898 52.3746 296.859 52.3787 296.816 52.3787C296.739 52.3787 296.681 52.3632 296.641 52.3315C296.603 52.2998 296.583 52.2511 296.583 52.1845V50.4417H297.012Z" fill="#F7BBE9"/>
<path d="M298.51 49.3992C298.461 49.3992 298.424 49.3862 298.399 49.3594C298.375 49.3334 298.362 49.2936 298.362 49.2408C298.362 49.2197 298.364 49.1961 298.368 49.1701C298.372 49.1441 298.377 49.1181 298.384 49.0937H301.77C301.819 49.0937 301.857 49.1067 301.881 49.1335C301.906 49.1595 301.918 49.1993 301.918 49.2522C301.918 49.2733 301.916 49.296 301.913 49.3204C301.91 49.3448 301.904 49.3716 301.898 49.3992H298.511H298.51ZM299.6 50.9048C299.67 50.852 299.73 50.8024 299.779 50.7545C299.828 50.7065 299.88 50.6643 299.933 50.6253C300.021 50.5448 300.118 50.4798 300.223 50.4303C300.33 50.3815 300.435 50.3563 300.541 50.3563C300.629 50.3563 300.699 50.3645 300.75 50.3799C300.802 50.3953 300.843 50.4124 300.874 50.4303L300.843 50.7569C300.814 50.7358 300.776 50.7195 300.726 50.7065C300.677 50.6943 300.616 50.6878 300.546 50.6878C300.388 50.6878 300.184 50.7862 299.938 50.9828C299.733 51.1477 299.555 51.2639 299.404 51.3305C299.252 51.3972 299.098 51.4305 298.943 51.4305H298.922C298.851 51.4305 298.796 51.4142 298.755 51.3801C298.714 51.3468 298.695 51.3005 298.695 51.2403C298.695 51.2119 298.697 51.1867 298.703 51.164C298.709 51.1412 298.716 51.1193 298.727 51.0982H298.927C299.061 51.0982 299.179 51.0795 299.279 51.0429C299.38 51.0063 299.487 50.9592 299.6 50.9032V50.9048ZM298.928 51.0998C299.15 51.0998 299.325 51.0437 299.452 50.9316C299.578 50.8195 299.642 50.67 299.642 50.4839C299.642 50.3295 299.6 50.1906 299.515 50.0679C299.43 49.9452 299.289 49.838 299.092 49.747L298.833 49.6259C298.804 49.6121 298.781 49.5958 298.764 49.5788C298.746 49.5609 298.738 49.5333 298.738 49.4943C298.738 49.4732 298.742 49.4512 298.751 49.4285C298.76 49.4057 298.767 49.3887 298.775 49.3781H299.129C299.214 49.4098 299.305 49.4553 299.402 49.5146C299.499 49.5739 299.591 49.6495 299.677 49.7413C299.764 49.8323 299.835 49.9379 299.891 50.0573C299.947 50.1768 299.976 50.3133 299.976 50.4677C299.976 50.5237 299.969 50.5773 299.955 50.6285C299.941 50.6797 299.925 50.7309 299.907 50.7837L299.537 51.1258L298.928 51.0998ZM301.203 49.3675V52.3527C301.182 52.3559 301.159 52.3608 301.132 52.3657C301.106 52.3705 301.079 52.3738 301.05 52.3738C300.983 52.3738 300.931 52.3616 300.894 52.3372C300.857 52.3128 300.838 52.2706 300.838 52.2105V49.3675H301.203Z" fill="#F7BBE9"/>
<path d="M301.769 49.3992C301.72 49.3992 301.683 49.3862 301.658 49.3594C301.634 49.3334 301.621 49.2936 301.621 49.2408C301.621 49.2197 301.623 49.1961 301.627 49.1701C301.631 49.1441 301.636 49.1181 301.643 49.0937H304.511C304.56 49.0937 304.597 49.1067 304.622 49.1335C304.646 49.1595 304.659 49.1993 304.659 49.2522C304.659 49.2733 304.657 49.296 304.654 49.3204C304.65 49.3448 304.645 49.3716 304.638 49.3992H301.77H301.769ZM302.028 51.489C302.014 51.4508 302.007 51.4118 302.007 51.3728C302.007 51.3338 302.013 51.298 302.022 51.2647C302.033 51.2314 302.047 51.2046 302.065 51.1835C302.142 51.1908 302.226 51.1973 302.316 51.2046C302.406 51.2119 302.49 51.2152 302.568 51.2152C302.949 51.2152 303.239 51.1372 303.438 50.9812C303.638 50.8252 303.737 50.6188 303.737 50.3628C303.737 50.1662 303.678 50.0086 303.56 49.8892C303.443 49.7697 303.295 49.7104 303.118 49.7104C302.956 49.7104 302.819 49.7624 302.706 49.8656C302.593 49.9688 302.537 50.1142 302.537 50.3003C302.537 50.3458 302.544 50.3953 302.558 50.4473C302.572 50.5002 302.586 50.5424 302.601 50.5741C302.583 50.6025 302.559 50.6253 302.529 50.6423C302.499 50.6602 302.462 50.6683 302.416 50.6683C302.349 50.6683 302.287 50.6358 302.231 50.5708C302.174 50.5058 302.146 50.4035 302.146 50.2629C302.146 50.1012 302.184 49.9582 302.262 49.8339C302.34 49.7096 302.444 49.6097 302.574 49.5341C302.705 49.4585 302.846 49.4138 302.997 49.4H303.23C303.385 49.4138 303.531 49.4618 303.667 49.5422C303.803 49.6227 303.913 49.7323 303.998 49.8713C304.083 50.0102 304.125 50.176 304.125 50.3685C304.125 50.6107 304.063 50.8154 303.94 50.982C303.817 51.1485 303.649 51.2753 303.437 51.3606C303.225 51.4467 302.984 51.4898 302.712 51.4898H302.616L302.511 51.2582L302.69 51.4743C302.934 51.5727 303.151 51.6628 303.341 51.7457C303.532 51.8286 303.697 51.9017 303.839 51.9667C303.98 52.0317 304.094 52.0886 304.182 52.1382C304.231 52.1625 304.268 52.1902 304.291 52.2194C304.314 52.2495 304.325 52.2885 304.325 52.338C304.325 52.3835 304.311 52.4266 304.283 52.4672C304.254 52.5078 304.218 52.5379 304.172 52.559C303.96 52.4428 303.767 52.3388 303.592 52.2454C303.417 52.152 303.25 52.0667 303.089 51.987C302.928 51.9074 302.763 51.8286 302.594 51.7473C302.425 51.6669 302.235 51.5808 302.028 51.4898V51.489Z" fill="#F7BBE9"/>
<path d="M306.087 50.752C306.087 50.8081 306.075 50.8658 306.05 50.9259C306.026 50.9852 306.005 51.0291 305.987 51.0575L305.929 50.9576L307.146 49.6576L307.427 49.8632L305.818 51.5215C305.783 51.5142 305.747 51.4987 305.709 51.4743C305.672 51.45 305.64 51.4207 305.611 51.3874C305.583 51.3541 305.564 51.3216 305.553 51.2899L305.67 51.1534C305.708 51.1079 305.738 51.0608 305.757 51.0112C305.777 50.9625 305.787 50.9097 305.787 50.8536C305.787 50.7764 305.756 50.7025 305.697 50.6326C305.637 50.5627 305.54 50.527 305.406 50.527H304.903C304.857 50.527 304.819 50.5132 304.79 50.4847C304.759 50.4563 304.741 50.423 304.734 50.3848C304.731 50.3669 304.728 50.3515 304.728 50.3377V50.3011C304.728 50.1288 304.762 49.968 304.829 49.8168C304.896 49.6657 304.99 49.5325 305.11 49.4171C305.23 49.3009 305.372 49.2099 305.536 49.1433C305.7 49.0767 305.879 49.0433 306.073 49.0433C306.309 49.0433 306.514 49.0856 306.687 49.1701C306.861 49.2546 307.004 49.3562 307.119 49.4756C307.233 49.595 307.319 49.7088 307.375 49.8177L307.428 49.9176L307.328 50.1548L307.174 50.0387L307.042 49.8916C306.978 49.8177 306.902 49.7413 306.814 49.6625C306.726 49.5837 306.62 49.5162 306.496 49.4602C306.373 49.4041 306.223 49.3757 306.046 49.3757C305.824 49.3757 305.625 49.448 305.449 49.5918C305.272 49.7356 305.161 49.9428 305.115 50.2133H305.422C305.62 50.2133 305.78 50.2653 305.904 50.3685C306.028 50.4717 306.09 50.6009 306.09 50.7553L306.087 50.752ZM308.145 49.0937C308.194 49.0937 308.232 49.1067 308.256 49.1335C308.281 49.1595 308.293 49.1993 308.293 49.2522C308.293 49.2733 308.291 49.296 308.287 49.3204C308.283 49.3448 308.278 49.3716 308.272 49.3992H307.213V49.3943C307.213 49.3139 307.24 49.2432 307.293 49.1839C307.346 49.1246 307.425 49.0945 307.53 49.0945H308.144L308.145 49.0937ZM307.579 49.3943V52.3527C307.558 52.3559 307.534 52.3608 307.508 52.3657C307.482 52.3705 307.454 52.3738 307.427 52.3738C307.36 52.3738 307.307 52.3616 307.271 52.3372C307.234 52.3128 307.215 52.2706 307.215 52.2105V49.3943H307.58H307.579Z" fill="#F7BBE9"/>
<path d="M308.04 49.3992C307.991 49.3992 307.953 49.3862 307.929 49.3594C307.904 49.3334 307.892 49.2936 307.892 49.2408C307.892 49.2197 307.893 49.1961 307.897 49.1701C307.9 49.1441 307.906 49.1181 307.912 49.0937H308.463C308.558 49.0937 308.64 49.1148 308.709 49.1571C308.777 49.1993 308.824 49.2554 308.849 49.3253C308.867 49.2448 308.905 49.1855 308.962 49.149C309.02 49.1124 309.087 49.0937 309.161 49.0937H309.542C309.591 49.0937 309.628 49.1067 309.653 49.1335C309.677 49.1595 309.689 49.1993 309.689 49.2522C309.689 49.2733 309.688 49.296 309.684 49.3204C309.68 49.3448 309.675 49.3716 309.668 49.3992H309.218C309.141 49.3992 309.081 49.4195 309.038 49.4602C308.996 49.5008 308.975 49.5625 308.975 49.647V52.4112C308.954 52.4144 308.93 52.4193 308.904 52.4242C308.878 52.4298 308.85 52.4323 308.822 52.4323C308.755 52.4323 308.703 52.4201 308.666 52.3957C308.629 52.3713 308.611 52.3291 308.611 52.269V49.595C308.611 49.5284 308.593 49.4788 308.56 49.448C308.526 49.4163 308.48 49.4008 308.419 49.4008H308.038L308.04 49.3992Z" fill="#F7BBE9"/>
<path d="M313.787 49.0937C313.836 49.0937 313.873 49.1067 313.898 49.1335C313.922 49.1595 313.935 49.1993 313.935 49.2522C313.935 49.2733 313.933 49.296 313.93 49.3204C313.926 49.3448 313.921 49.3716 313.914 49.3992H309.543C309.494 49.3992 309.457 49.3862 309.432 49.3594C309.408 49.3334 309.396 49.2936 309.396 49.2408C309.396 49.2197 309.397 49.1961 309.401 49.1701C309.405 49.1441 309.41 49.1181 309.417 49.0937H313.788H313.787ZM309.828 48.2146L309.765 48.0464C309.666 47.9554 309.585 47.8449 309.521 47.7149C309.458 47.5849 309.426 47.4622 309.426 47.346C309.426 47.2022 309.455 47.0974 309.513 47.0324C309.571 46.9674 309.641 46.9349 309.722 46.9349C309.803 46.9349 309.859 46.9772 309.891 47.0617C309.859 47.0966 309.836 47.1405 309.82 47.1933C309.805 47.2461 309.796 47.2965 309.796 47.346C309.796 47.4265 309.814 47.5069 309.847 47.5857C309.881 47.6645 309.924 47.7393 309.977 47.8092L309.828 48.2146ZM310.114 48.7411C309.938 48.7411 309.804 48.7029 309.712 48.6249C309.621 48.5477 309.575 48.4478 309.575 48.3251C309.575 48.1813 309.634 48.048 309.752 47.9253C309.871 47.8027 310.033 47.7035 310.242 47.628C310.45 47.5524 310.692 47.515 310.967 47.515C311.362 47.515 311.715 47.5906 312.025 47.7417C312.336 47.8928 312.595 48.1033 312.803 48.3738C313.011 48.6444 313.157 48.9597 313.242 49.3212H312.892C312.79 48.967 312.64 48.681 312.442 48.4632C312.245 48.2455 312.019 48.0862 311.762 47.9838C311.506 47.8815 311.24 47.8311 310.96 47.8311C310.766 47.8311 310.593 47.8538 310.439 47.8993C310.286 47.9448 310.166 48.0042 310.079 48.0757C309.992 48.148 309.949 48.2219 309.949 48.2991C309.949 48.3974 310.018 48.4462 310.156 48.4462H311.341C311.39 48.4462 311.427 48.4592 311.452 48.486C311.476 48.512 311.489 48.5518 311.489 48.6046C311.489 48.6257 311.487 48.6468 311.484 48.668C311.48 48.6891 311.475 48.7135 311.468 48.7419H310.113L310.114 48.7411ZM309.712 51.2363C309.819 51.1802 309.925 51.1152 310.033 51.0413C310.14 50.9673 310.24 50.8772 310.331 50.7699C310.423 50.6627 310.497 50.5335 310.554 50.3832C310.61 50.232 310.638 50.0533 310.638 49.8461C310.638 49.7445 310.625 49.6478 310.598 49.5568C310.572 49.4658 310.545 49.3935 310.516 49.3407H310.849C310.877 49.4358 310.903 49.543 310.926 49.6649C310.949 49.786 310.96 49.8924 310.96 49.9834C310.96 50.1938 310.931 50.3758 310.873 50.5286C310.815 50.6813 310.742 50.8113 310.656 50.9186C310.569 51.0258 310.479 51.1152 310.386 51.1867C310.293 51.259 310.209 51.3192 310.135 51.3687C310.174 51.5304 310.263 51.671 310.402 51.7896C310.541 51.909 310.71 51.9683 310.907 51.9683C311.137 51.9683 311.331 51.9009 311.492 51.766C311.653 51.6312 311.733 51.4248 311.733 51.1477C311.733 50.9617 311.691 50.7894 311.609 50.6318C311.526 50.4742 311.407 50.3092 311.252 50.137C311.097 49.9647 310.906 49.7648 310.68 49.5365L310.919 49.3683L311.136 49.5788C311.224 49.6633 311.324 49.7616 311.435 49.8737C311.546 49.9858 311.654 50.1102 311.757 50.245C311.861 50.3799 311.948 50.5262 312.016 50.6822C312.085 50.8382 312.119 51.0039 312.119 51.1794C312.119 51.4183 312.064 51.6206 311.955 51.7872C311.846 51.9537 311.701 52.0813 311.521 52.169C311.342 52.2568 311.144 52.3007 310.928 52.3007C310.692 52.3007 310.487 52.2519 310.314 52.1536C310.141 52.0553 310.004 51.9245 309.902 51.7612C309.8 51.5978 309.736 51.4232 309.712 51.2371L309.712 51.2363ZM310.336 48.4884C310.425 48.6046 310.505 48.7127 310.58 48.815C310.654 48.9166 310.744 49.0344 310.849 49.1677L310.484 49.162L310.108 48.6988L310.336 48.4884ZM313.22 49.357V52.3892C313.199 52.3925 313.175 52.3973 313.149 52.4022C313.123 52.4079 313.095 52.4103 313.066 52.4103C312.999 52.4103 312.947 52.3982 312.91 52.3738C312.874 52.3494 312.855 52.3072 312.855 52.247V49.357H313.22Z" fill="#F7BBE9"/>
<path d="M291.072 39.5266V29.7173H286.642C285.397 30.5704 284.198 31.4901 283.048 32.4741C282.577 32.8779 282.13 33.2736 281.707 33.6636L281.879 30.689V27.7599H293.187L292.964 24.6334H244.8L245.023 27.7599H253.902C253.37 28.1093 252.953 28.5473 252.651 29.077C252.341 29.6181 252.187 30.2706 252.187 31.0343V31.391C252.187 32.6138 252.546 33.5368 253.263 34.16C253.981 34.784 254.979 35.096 256.258 35.096C256.884 35.096 257.443 35.0318 257.934 34.9051C258.099 34.862 258.26 34.8124 258.421 34.7588C258.41 35.5079 258.118 36.0702 257.543 36.4431C256.958 36.825 256.162 37.0159 255.156 37.0159C254.323 37.0159 253.631 36.9014 253.078 36.6714C252.525 36.4415 252.084 36.1279 251.755 35.7298C251.425 35.3316 251.181 34.8742 251.025 34.3574C250.868 33.8407 250.768 33.2906 250.727 32.7073L250.53 29.5816H246.52L246.681 32.9786C246.796 35.4243 247.575 37.2889 249.019 38.5735C250.463 39.8581 252.504 40.4991 255.143 40.4991C257.494 40.4991 259.281 40.0198 260.507 39.0594C261.731 38.099 262.344 36.7576 262.344 35.0343C262.344 34.7718 262.34 34.511 262.331 34.2518C262.323 33.9934 262.309 33.7351 262.288 33.4767C262.268 33.2175 262.237 32.9656 262.196 32.7194L259.017 31.3163L258.361 31.6973C258.179 31.8038 257.985 31.8988 257.779 31.9801C257.573 32.0629 257.358 32.1036 257.136 32.1036C256.831 32.1036 256.606 32.0272 256.462 31.8753C256.317 31.7233 256.245 31.4796 256.245 31.1424V30.9579C256.245 30.4745 256.379 30.0577 256.647 29.7083C256.916 29.3598 257.284 29.0713 257.755 28.8406C258.086 28.6797 258.447 28.5473 258.839 28.4416C259.146 28.9584 259.522 29.4378 259.97 29.8806C260.696 30.5988 261.603 31.1781 262.692 31.6161C263.121 31.7891 263.577 31.9338 264.059 32.0524C263.997 32.3936 263.944 32.7357 263.899 33.081C263.812 33.7326 263.75 34.3834 263.712 35.0318C263.676 35.6802 263.657 36.3164 263.657 36.9396C263.657 37.3669 263.663 37.8033 263.676 38.2509C263.688 38.6978 263.711 39.1349 263.743 39.5623C263.777 39.9889 263.819 40.3862 263.868 40.7559H267.801C267.793 40.1571 267.789 39.5103 267.789 38.8173V36.9404C267.789 36.1937 267.806 35.4291 267.839 34.6443C267.873 33.861 267.917 33.0818 267.975 32.3059C268.033 31.5299 268.103 30.7938 268.185 30.0967C267.236 29.9903 266.364 29.7993 265.569 29.5239C264.773 29.2493 264.073 28.8966 263.466 28.4652C263.159 28.2466 262.88 28.011 262.632 27.7575H270.648V40.4967H274.804V27.7599H277.724V38.2103H281.708C282.285 37.6603 282.903 37.1037 283.562 36.5423C284.222 35.98 284.897 35.4283 285.586 34.8864C286.078 34.4996 286.564 34.1243 287.044 33.7603L286.916 35.9451V38.4695C286.658 38.4533 286.399 38.4435 286.136 38.4435C284.487 38.4435 283.206 38.7409 282.295 39.3364C281.383 39.9312 280.929 40.7949 280.929 41.9275C280.929 43.0601 281.329 43.858 282.128 44.4446C282.928 45.0313 284.058 45.3246 285.518 45.3246C286.624 45.3246 287.547 45.171 288.289 44.8631C289.032 44.5559 289.593 44.1229 289.972 43.5647C290.207 43.2194 290.368 42.8375 290.457 42.4199C291.847 43.1747 293.363 44.2813 295.007 45.7438L295.304 42.3833C294.421 41.5789 293.497 40.8834 292.533 40.2968C292.058 40.0084 291.571 39.7516 291.072 39.5266H291.072ZM286.853 42.3086C286.622 42.5556 286.189 42.6783 285.553 42.6783C285.248 42.6783 285.015 42.6141 284.854 42.4873C284.693 42.3606 284.613 42.1818 284.613 41.9519C284.613 41.7219 284.744 41.5269 285.009 41.3921C285.272 41.2564 285.697 41.1881 286.283 41.1881C286.581 41.1881 286.886 41.2117 287.196 41.2564C287.187 41.7219 287.073 42.0738 286.853 42.3086Z" fill="white" fill-opacity="0.92"/>
<path d="M329.3 29.471C328.694 28.895 328.025 28.3254 327.293 27.7599H333L332.777 24.6334H325.1C324.64 24.1224 324.266 23.634 323.98 23.1685C323.683 22.6842 323.466 22.1984 323.331 21.71C323.194 21.2217 323.126 20.7115 323.126 20.1777C323.126 19.3489 323.328 18.5039 323.732 17.6419H319.835C319.415 18.3065 319.204 19.0865 319.204 19.9802C319.204 20.5303 319.276 21.0779 319.42 21.6231C319.565 22.1691 319.806 22.7127 320.144 23.2538C320.431 23.7137 320.799 24.1727 321.246 24.6326H304.358V27.3529H304.235C303.971 26.3275 303.426 25.5637 302.601 25.0632C301.776 24.5627 300.663 24.3125 299.261 24.3125C297.331 24.3125 295.869 24.8049 294.876 25.7896C293.882 26.7744 293.384 28.1735 293.384 29.987V31.3284L297.081 33.6302L294.04 35.4275L296.799 37.7659L304.036 33.6985V40.4983H308.193V27.7599H311.138V40.4999H315.295V27.7599H321.876V28.388C321.876 29.2005 321.798 29.8919 321.641 30.4623C321.484 31.0327 321.241 31.5145 320.911 31.9085C320.581 32.3026 320.152 32.6365 319.624 32.912C319.095 33.1866 318.461 33.4352 317.718 33.6562V34.8132C317.718 36.0198 317.993 37.0557 318.541 37.921C319.089 38.7872 319.888 39.4518 320.935 39.9149C321.981 40.3789 323.244 40.6104 324.721 40.6104C326.197 40.6104 327.444 40.3845 328.488 39.9336C329.531 39.4827 330.331 38.8237 330.888 37.9584C331.445 37.0931 331.724 36.0401 331.724 34.801V34.5792C331.724 33.5205 331.505 32.5813 331.068 31.7607C330.631 30.94 330.041 30.1771 329.299 29.471H329.3ZM300.262 31.7509L297.826 30.2315V30.1722C297.826 29.4418 298.053 28.8795 298.506 28.4863C298.96 28.0922 299.641 27.8956 300.548 27.8956C301.348 27.8956 302.033 28.0662 302.602 28.4067C303.082 28.6943 303.486 29.1103 303.813 29.6522L300.262 31.7509ZM327.507 34.3818C327.507 34.9319 327.402 35.4096 327.192 35.8159C326.981 36.2221 326.663 36.5341 326.239 36.751C325.814 36.9688 325.284 37.0769 324.649 37.0769C324.013 37.0769 323.496 36.9891 323.071 36.812C322.646 36.6357 322.326 36.3708 322.112 36.0182C321.984 35.8077 321.895 35.5648 321.843 35.2894C322.218 35.1594 322.561 35.0066 322.872 34.8303C323.677 34.3753 324.275 33.7391 324.667 32.9225C325.007 32.2124 325.2 31.3487 325.244 30.3315C325.533 30.6085 325.812 30.8929 326.077 31.187C326.502 31.6591 326.846 32.1515 327.11 32.6642C327.374 33.1769 327.506 33.7042 327.506 34.2461V34.3818H327.507Z" fill="white" fill-opacity="0.92"/>
</g>
<defs>
<linearGradient id="paint0_linear_448_4394" x1="0" y1="35" x2="360" y2="35" gradientUnits="userSpaceOnUse">
<stop stop-color="#2F299D"/>
<stop offset="0.484669" stop-color="#3338D7"/>
<stop offset="1" stop-color="#4D51DE"/>
</linearGradient>
<clipPath id="clip0_448_4394">
<rect width="88.2" height="35.1" fill="white" transform="translate(244.8 17.55)"/>
</clipPath>
</defs>
</svg>
