<svg xmlns="http://www.w3.org/2000/svg" width="119" height="60" fill="none" viewBox="0 0 119 60"><g clip-path="url(#a)"><path fill="#355DAB" d="M36.083 18.428c-.01-.151 7.697-1.002 14.285-1.702 4.913-.522 9.205-.961 9.205-.961s0 9.447-7.718 12.567c0 0-5.956 2.247-11.914-2.163 0 0-3.532-2.596-3.858-7.74Z"></path><path fill="#FF1C5A" d="m50.367 16.726 11.89-3.291-3.898 7.79-7.992-4.499Z"></path><path fill="#FAA700" d="M55.378 9.357c5.369-1 6.88 4.078 6.88 4.078l-11.891 3.292c.107-6.947 5.011-7.37 5.011-7.37Z"></path><path fill="#355DAB" d="m61.553 10.873 4.049-1.823-2.842 4.014-1.207-2.19Z"></path><path fill="#E2008D" d="M31.559 7.608s-.504-.75 0-1.331c0 0 .838-.833 1.762 0l10.068 11.82s.671.914 0 1.414c0 0-.672 1.165-2.265-.417L31.56 7.608ZM29.95 9.1s-.411-.61 0-1.088c0 0 .684-.679 1.438 0l8.22 9.652s.549.747 0 1.155c0 0-.548.951-1.849-.34L29.95 9.1ZM29.31 11.149s-.328-.487 0-.866c0 0 .545-.54 1.146 0l6.548 7.688s.436.595 0 .92c0 0-.437.757-1.474-.27l-6.22-7.472ZM50.367 16.717l9.253-.966s-.182 3.411-1.22 5.487l-8.033-4.521Z"></path><path fill="#355DAB" d="m59.62 15.75 2.698-2.341-3.92 7.83s1.23-3.894 1.221-5.488Z"></path><path fill="#fff" d="M57.967 12.12c.178-.71.972-.428 1.429-.734-.454-.585-1.631-.124-1.44.662"></path><path fill="#E2008D" d="M37.816 23.75s1.388 2.153 3.16 3.117l-7.174 2.851 4.014-5.968Z"></path><path fill="#2D4797" d="M9.394 45.803c-.417-.262-.625-.674-.625-1.242 0-.567.416-1.428 1.252-2.583.242-.37.632-.555 1.169-.555.539 0 1.269.267 2.192.8.922.535 1.758.802 2.505.802 1.339 0 2.01-.262 2.01-.784 0-.414-.737-.72-2.209-.915-1.384-.196-2.757-.708-4.12-1.537-.638-.393-1.164-1.009-1.58-1.847-.418-.839-.626-1.836-.626-2.991 0-3.443 2.383-5.166 7.15-5.166 1.56 0 3.164.37 4.811 1.112.768.348 1.153.784 1.153 1.308 0 .523-.242 1.166-.725 1.928-.482.764-.978 1.144-1.483 1.144-.263 0-.752-.164-1.466-.49a5.5 5.5 0 0 0-2.323-.49c-1.296 0-1.944.24-1.944.719 0 .654.747 1.079 2.24 1.274 1.45.153 2.856.567 4.218 1.243.637.306 1.17.834 1.599 1.586.428.753.643 1.695.643 2.828 0 1.132-.215 2.098-.643 2.894-.428.795-1.027 1.389-1.796 1.782-1.407.676-3.17 1.013-5.29 1.013-2.12-.001-4.157-.61-6.112-1.833ZM35.002 30.176c2.197 0 4.025.83 5.485 2.485 1.461 1.657 2.193 3.684 2.193 6.081v5.755c0 .502-.016.879-.05 1.128-.034.252-.138.54-.313.866-.285.566-1.132.85-2.537.85-1.34 0-2.174-.284-2.505-.85-.176-.326-.28-.62-.312-.883-.034-.261-.05-.654-.05-1.177v-5.722c0-.894-.253-1.591-.758-2.092-.506-.501-1.149-.753-1.928-.753-.78 0-1.466.234-2.059.704-.593.469-.933.997-1.021 1.586v6.342c0 .5-.017.878-.05 1.128-.034.251-.138.54-.313.865-.285.567-1.132.85-2.537.85-1.384 0-2.229-.294-2.537-.883-.154-.328-.247-.61-.28-.85a9.543 9.543 0 0 1-.05-1.144V24.913c0-.501.016-.877.05-1.128.033-.25.126-.528.28-.834.308-.588 1.165-.883 2.57-.883 1.385 0 2.22.295 2.506.883.176.327.28.616.312.866.032.251.05.627.05 1.128v7.225c1.097-1.329 2.381-1.994 3.854-1.994ZM45.312 32.99c0-.502.016-.878.05-1.129.033-.25.126-.54.28-.865.308-.567 1.164-.85 2.57-.85 1.054 0 1.801.185 2.24.555.374.306.572.773.594 1.407.023.218.034.534.034.948v11.443c0 .501-.016.878-.05 1.128-.032.251-.138.54-.313.865-.285.567-1.132.85-2.537.85-1.383 0-2.23-.294-2.536-.883-.154-.328-.247-.61-.281-.85-.034-.24-.05-.622-.05-1.144V32.99h-.002ZM80.004 30.176c2.197 0 4.025.83 5.486 2.485 1.46 1.657 2.192 3.684 2.192 6.081v5.755c0 .502-.016.879-.05 1.128-.033.252-.138.54-.312.866-.286.566-1.132.85-2.537.85-1.34 0-2.175-.284-2.505-.85-.177-.326-.28-.62-.313-.883-.032-.261-.05-.654-.05-1.177v-5.722c0-.894-.253-1.591-.758-2.092-.505-.501-1.148-.753-1.927-.753-.78 0-1.468.234-2.06.704-.593.469-.934.997-1.021 1.586v6.342c0 .5-.016.878-.05 1.128-.034.251-.138.54-.313.865-.285.567-1.132.85-2.536.85-1.384 0-2.231-.294-2.537-.883-.154-.328-.247-.61-.281-.85-.034-.24-.05-.622-.05-1.144V24.913c0-.501.016-.877.05-1.128.034-.25.127-.528.28-.834.309-.588 1.165-.883 2.571-.883 1.384 0 2.22.295 2.505.883.175.327.28.616.313.866.034.251.05.627.05 1.128v7.225c1.096-1.329 2.383-1.994 3.853-1.994ZM92.598 32.268c1.846-1.7 3.955-2.55 6.326-2.55 2.372 0 4.471.845 6.295 2.534 1.823 1.69 2.734 3.843 2.734 6.457 0 1.809-.472 3.416-1.416 4.822-.945 1.407-2.093 2.44-3.443 3.106-1.352.665-2.752.998-4.201.998-1.45 0-2.857-.355-4.218-1.063-1.363-.708-2.51-1.754-3.443-3.14-.935-1.384-1.4-2.948-1.4-4.691-.002-2.614.92-4.772 2.766-6.473Zm4.12 8.811c.702.535 1.416.8 2.14.8.726 0 1.45-.271 2.175-.817.725-.544 1.088-1.35 1.088-2.42 0-1.068-.342-1.863-1.022-2.387-.682-.523-1.416-.784-2.208-.784-.792 0-1.527.272-2.208.818-.682.545-1.022 1.346-1.022 2.402.002 1.06.353 1.855 1.057 2.388ZM58.691 42.095v.127c0 .983.002 1.965-.003 2.948-.002.455-.072.894-.268 1.318-.19.41-.5.657-.917.798-.36.121-.73.183-1.106.2-.337.014-.676.026-1.012.015a4.758 4.758 0 0 1-1.26-.192c-.548-.167-.921-.5-1.093-1.057a3.657 3.657 0 0 1-.162-1.025c-.003-.203-.013-.407-.013-.609 0-4.636 0-9.272-.005-13.91a.49.49 0 0 1 .223-.42 20.045 20.045 0 0 0 1.933-1.591c.959-.909 1.828-1.892 2.493-3.038.405-.697.71-1.433.884-2.222.005-.02.005-.045.016-.056.042-.037.085-.084.133-.094.06-.011.075.046.079.1.024.357.072.713.072 1.068.005 3.553.003 7.104.003 10.657v.162c.047-.032.08-.05.106-.075.508-.47 1.017-.94 1.523-1.413.653-.609 1.278-1.253 1.966-1.821.538-.444 1.113-.858 1.785-1.106.58-.213 1.115-.156 1.607.224.13.1.265.2.382.315a7.7 7.7 0 0 1 1.465 1.938c.113.217.198.444.227.687.046.368-.093.683-.295.976-.288.413-.663.741-1.044 1.06a2583.46 2583.46 0 0 0-3.144 2.647c-.014.013-.032.024-.06.044.136.113.258.217.381.317 1.386 1.138 2.774 2.27 4.153 3.413.29.238.559.504.814.78.274.295.413.653.367 1.065-.032.28-.129.543-.257.791-.414.808-.946 1.526-1.653 2.107-.266.22-.557.4-.906.464-.29.053-.565-.006-.834-.11-.45-.173-.848-.437-1.246-.704-.8-.538-1.475-1.216-2.167-1.876-.914-.872-1.797-1.774-2.756-2.6-.127-.108-.255-.213-.383-.32l-.028.018Z"></path></g><defs><clipPath id="a"><path fill="#fff" d="M8.76 2.502h99.154v50.05H8.76z"></path></clipPath></defs></svg>